<?xml version="1.0" encoding="utf-8"?>
<!-- Generator: Adobe Illustrator 26.0.1, SVG Export Plug-In . SVG Version: 6.00 Build 0)  -->
<svg version="1.1" id="レイヤー_1" xmlns="http://www.w3.org/2000/svg" xmlns:xlink="http://www.w3.org/1999/xlink" x="0px"
	 y="0px" viewBox="0 0 290 80" style="enable-background:new 0 0 290 80;" xml:space="preserve">
<style type="text/css">
	.st0{fill:#FFFFFF;}
</style>
<g>
	<g>
		<path class="st0" d="M77.6,11.3h12.6v0c0-2.5,2.1-4.6,4.6-4.6h0.1c2.5,0,4.6,2.1,4.6,4.6v0H114c1.3,0,2.4,0.4,3.3,1.3
			c1,1,1.4,2.1,1.3,3.3l-1.5,12.6c-0.5,3.3-1.3,6.3-2.5,9.2c-1.3,2.9-3.2,5.3-5.5,7.3c-2.4,2-5.1,3.1-8.3,3.3h-5.3
			c-2.5,0-4.6-2.1-4.6-4.6v0c0-2.5,2.1-4.6,4.6-4.6h4.2c1.7-0.1,3.3-0.8,4.6-2c1.3-1.2,2.2-2.6,2.7-4.2c0.5-1.6,0.9-3.3,1.1-5.2
			l0.5-5.4c0.1-1.1-0.3-1.7-1.2-1.7H82.7c-1.6,0-2.3,0.8-2.3,2.3V29c0,2.6-2.1,4.6-4.6,4.6h0c-2.6,0-4.6-2.1-4.6-4.6V17.4
			c0-1.9,0.6-3.4,1.7-4.5C73.9,11.8,75.5,11.3,77.6,11.3z"/>
		<path class="st0" d="M132.8,7.7h35c2.5,0,4.6,2.1,4.6,4.6v0c0,2.5-2.1,4.6-4.6,4.6h-9.4l-0.9,6.2h10.6c2.5,0,4.6,2.1,4.6,4.6v0
			c0,2.5-2.1,4.6-4.6,4.6h-12l-0.3,2.2c-0.5,3.8-2.2,7.1-4.9,9.8c-2.7,2.7-5.8,4-9.2,4h-8.5c-2.5,0-4.6-2.1-4.6-4.6v0
			c0-2.5,2.1-4.6,4.6-4.6h7.2c1.7,0,3.1-0.5,4.2-1.6c1.1-1.1,1.9-2.8,2.2-5.1H133c-2.5,0-4.6-2.1-4.6-4.6v0c0-2.5,2.1-4.6,4.6-4.6
			h15.2l0.9-6.2h-16.4c-2.5,0-4.6-2.1-4.6-4.6v0C128.2,9.8,130.2,7.7,132.8,7.7z"/>
		<path class="st0" d="M187.4,11.3h9.8l0,0c0.4-2.6,2.6-4.6,5.3-4.6h0c2.4,0,4.3,2.2,4,4.6l0,0h17.9c1.3,0,2.4,0.4,3.3,1.3
			c1,1,1.4,2.1,1.3,3.3l-1.5,12.6c-0.5,3.3-1.3,6.3-2.5,9.2c-1.3,2.9-3.1,5.4-5.5,7.5c-2.3,2.1-4.7,3.1-7.2,3.1h-3.2
			c-2.5,0-4.6-2.1-4.6-4.6v0c0-2.5,2.1-4.6,4.6-4.6h2.1c1.4,0,2.6-0.7,3.7-2c1.1-1.3,1.9-2.7,2.4-4.3c0.5-1.6,0.9-3.3,1.1-5.2
			l0.5-5.4c0.1-1.1-0.3-1.7-1.2-1.7h-12.6l-1.2,8c-0.5,3.3-1.3,6.3-2.5,9.2c-1.3,2.9-3.2,5.3-5.5,7.3c-2.4,2-5.1,3.1-8.3,3.3h-2
			c-2.5,0-4.6-2.1-4.6-4.6v0c0-2.5,2.1-4.6,4.6-4.6h0.9c1.7-0.1,3.3-0.8,4.6-2c1.3-1.2,2.2-2.6,2.7-4.2c0.5-1.6,0.9-3.3,1.1-5.2
			l1-7.1h-8.5c-2.5,0-4.6-2.1-4.6-4.6v0C182.8,13.3,184.8,11.3,187.4,11.3z"/>
		<path class="st0" d="M248.2,13v12.4c0,2.6-2.1,4.6-4.6,4.6l0,0c-2.6,0-4.6-2.1-4.6-4.6V13c0-2.6,2.1-4.6,4.6-4.6l0,0
			C246.1,8.3,248.2,10.4,248.2,13z M279.1,8c3.1,0,5.3,3,4.3,5.9l-5.8,18.2c-1.8,5.2-4.1,9.2-6.9,11.8c-2.7,2.7-5.7,4.1-9,4.3h-4.5
			c-2.5,0-4.6-2.1-4.6-4.6v0c0-2.5,2.1-4.6,4.6-4.6h2.1c1.7-0.1,3.4-0.8,4.9-2c1.5-1.2,2.7-2.6,3.5-4.2c0.8-1.6,1.4-3.3,2-5.2
			l4.9-16.4C275.3,9.3,277,8,279.1,8L279.1,8z M261.9,13v12.4c0,2.6-2.1,4.6-4.6,4.6h0c-2.6,0-4.6-2.1-4.6-4.6V13
			c0-2.6,2.1-4.6,4.6-4.6h0C259.8,8.3,261.9,10.4,261.9,13z"/>
	</g>
	<g>
		<g>
			<path class="st0" d="M125.6,73.3c-0.8,0-1.5-0.1-2.3-0.3c-0.7-0.2-1.5-0.4-2.1-0.8c-0.7-0.3-1.3-0.8-1.8-1.4
				c-0.5-0.6-0.8-1.3-0.8-2.1v-0.9v-6.7c0-0.8,0.7-1.5,1.5-1.5l0,0c0.8,0,1.5,0.7,1.5,1.5v7c0,0.5,0.2,0.8,0.5,1.1
				c0.3,0.3,0.7,0.5,1.1,0.7c0.4,0.2,0.8,0.3,1.2,0.4c0.4,0.1,0.8,0.1,1.3,0.1c0.4,0,0.9,0,1.3-0.1c0.4-0.1,0.8-0.2,1.2-0.4
				c0.4-0.2,0.7-0.4,1.1-0.7c0.3-0.3,0.5-0.7,0.5-1.1v-7c0-0.8,0.7-1.5,1.5-1.5h0c0.8,0,1.5,0.7,1.5,1.5v6.7v0.9
				c0,0.8-0.3,1.5-0.9,2.1c-0.5,0.6-1.1,1-1.8,1.4c-0.7,0.3-1.4,0.6-2.1,0.8C127.2,73.2,126.4,73.3,125.6,73.3z"/>
			<path class="st0" d="M140.4,62.7c-0.6,0-1,0.2-1.4,0.6c-0.4,0.4-0.6,0.9-0.8,1.4c-0.2,0.5-0.2,1-0.2,1.6c0,0.5,0.1,1.1,0.2,1.6
				c0.2,0.5,0.4,1,0.8,1.4c0.4,0.4,0.9,0.6,1.4,0.6h7c0.8,0,1.5,0.7,1.5,1.5v0c0,0.8-0.7,1.5-1.5,1.5h-6.7h-1
				c-1-0.1-1.9-0.5-2.5-1.2c-0.7-0.7-1.1-1.6-1.4-2.5c-0.3-0.9-0.4-1.9-0.4-2.9c0-0.7,0.1-1.4,0.2-2.1c0.2-0.7,0.4-1.4,0.8-2
				c0.3-0.6,0.8-1.2,1.4-1.6c0.6-0.5,1.2-0.7,2-0.7h0.4h7.3c0.8,0,1.5,0.7,1.5,1.5v0c0,0.8-0.7,1.5-1.5,1.5H140.4z"/>
		</g>
		<path class="st0" d="M153.8,69.9h4v-7.1h-4c-0.8,0-1.5-0.7-1.5-1.5v0c0-0.8,0.7-1.5,1.5-1.5h11c0.8,0,1.5,0.7,1.5,1.5v0
			c0,0.8-0.7,1.5-1.5,1.5h-4v7.1h4c0.8,0,1.5,0.7,1.5,1.5v0c0,0.8-0.7,1.5-1.5,1.5h-11c-0.8,0-1.5-0.7-1.5-1.5v0
			C152.3,70.5,153,69.9,153.8,69.9z"/>
		<path class="st0" d="M172.6,61.2v10.1c0,0.8-0.7,1.5-1.5,1.5l0,0c-0.8,0-1.5-0.7-1.5-1.5V61.2c0-0.8,0.7-1.5,1.5-1.5l0,0
			C171.9,59.7,172.6,60.4,172.6,61.2z M174.9,63.3c1-0.7,2.3-1.3,4-2l3.2-1.3c1-0.4,2.1,0.3,2.1,1.4v0c0,0.6-0.4,1.2-1,1.4l-2.8,1.1
			c-0.6,0.2-1.2,0.5-1.7,0.7c-0.5,0.2-1,0.5-1.5,0.8c-0.4,0.3-0.7,0.6-0.7,0.9c0,0.3,0.3,0.6,0.7,0.9c0.4,0.3,0.9,0.6,1.5,0.8
			c0.5,0.2,1.1,0.5,1.7,0.7l3,1.1c0.6,0.2,1,0.8,1,1.4v0c0,1.1-1.1,1.8-2.1,1.4l-3.4-1.4c-1.7-0.7-3-1.4-4-2c-1-0.7-1.5-1.6-1.5-2.9
			C173.4,65,173.9,64,174.9,63.3z"/>
		<path class="st0" d="M194.5,67.9h3.1l-0.6-1.6c-0.2-0.6-0.5-1.2-0.7-1.7c-0.2-0.5-0.5-1-0.8-1.5c-0.3-0.4-0.6-0.7-0.9-0.7
			c-0.4,0-0.7,0.3-1,0.7c-0.3,0.4-0.5,0.9-0.8,1.5c-0.2,0.5-0.5,1.1-0.7,1.7l-2,5.6c-0.2,0.6-0.8,1-1.4,1l0,0
			c-1.1,0-1.8-1.1-1.4-2.1l2.3-6c0.7-1.7,1.4-3,2-4c0.7-1,1.6-1.5,2.9-1.5c1.3,0,2.2,0.5,2.9,1.5c0.7,1,1.3,2.3,2,4l2.4,6
			c0.4,1-0.3,2.1-1.4,2.1h-0.1c-0.6,0-1.2-0.4-1.4-1l-0.3-1h-4.2c-0.8,0-1.5-0.7-1.5-1.5l0,0C193,68.6,193.7,67.9,194.5,67.9z"/>
		<path class="st0" d="M205.2,59.8h12.4c0.8,0,1.5,0.7,1.5,1.5v0c0,0.8-0.7,1.5-1.5,1.5h-4.7v8.6c0,0.8-0.7,1.5-1.5,1.5l0,0
			c-0.8,0-1.5-0.7-1.5-1.5v-8.6h-4.7c-0.8,0-1.5-0.7-1.5-1.5v0C203.7,60.4,204.3,59.8,205.2,59.8z"/>
		<path class="st0" d="M229.5,73.3c-0.8,0-1.5-0.1-2.3-0.3c-0.7-0.2-1.5-0.4-2.1-0.8c-0.7-0.3-1.3-0.8-1.8-1.4
			c-0.5-0.6-0.8-1.3-0.8-2.1v-0.9v-6.7c0-0.8,0.7-1.5,1.5-1.5l0,0c0.8,0,1.5,0.7,1.5,1.5v7c0,0.5,0.2,0.8,0.5,1.1
			c0.3,0.3,0.7,0.5,1.1,0.7c0.4,0.2,0.8,0.3,1.2,0.4c0.4,0.1,0.8,0.1,1.3,0.1c0.4,0,0.9,0,1.3-0.1c0.4-0.1,0.8-0.2,1.2-0.4
			c0.4-0.2,0.7-0.4,1.1-0.7c0.3-0.3,0.5-0.7,0.5-1.1v-7c0-0.8,0.7-1.5,1.5-1.5h0c0.8,0,1.5,0.7,1.5,1.5v6.7v0.9
			c0,0.8-0.3,1.5-0.9,2.1c-0.5,0.6-1.1,1-1.8,1.4c-0.7,0.3-1.4,0.6-2.1,0.8C231,73.2,230.2,73.3,229.5,73.3z"/>
	</g>
	<g>
		<path class="st0" d="M9.3,25.4c-1,0-2-0.5-2.6-1.5c-0.8-1.4-0.3-3.2,1.1-4L27.6,8.8c1.4-0.8,3.2-0.3,4,1.1c0.8,1.4,0.3,3.2-1.1,4
			L10.8,25C10.3,25.3,9.8,25.4,9.3,25.4z"/>
		<path class="st0" d="M56.1,25.4c-0.5,0-1-0.1-1.4-0.4L34.9,13.9c-1.4-0.8-1.9-2.6-1.1-4c0.8-1.4,2.6-1.9,4-1.1l19.7,11.1
			c1.4,0.8,1.9,2.6,1.1,4C58.1,24.9,57.1,25.4,56.1,25.4z"/>
		<path class="st0" d="M9.3,35.9c-1,0-2-0.5-2.6-1.5c-0.8-1.4-0.3-3.2,1.1-4l19.7-11.1c1.4-0.8,3.2-0.3,4,1.1c0.8,1.4,0.3,3.2-1.1,4
			L10.8,35.6C10.3,35.8,9.8,35.9,9.3,35.9z"/>
		<path class="st0" d="M56.1,35.9c-0.5,0-1-0.1-1.4-0.4L34.9,24.5c-1.4-0.8-1.9-2.6-1.1-4c0.8-1.4,2.6-1.9,4-1.1l19.7,11.1
			c1.4,0.8,1.9,2.6,1.1,4C58.1,35.4,57.1,35.9,56.1,35.9z"/>
		<path class="st0" d="M9.3,46.4c-1,0-2-0.5-2.6-1.5c-0.8-1.4-0.3-3.2,1.1-4l19.7-11.1c1.4-0.8,3.2-0.3,4,1.1c0.8,1.4,0.3,3.2-1.1,4
			L10.8,46.1C10.3,46.3,9.8,46.4,9.3,46.4z"/>
		<path class="st0" d="M56.1,46.4c-0.5,0-1-0.1-1.4-0.4L34.9,35c-1.4-0.8-1.9-2.6-1.1-4c0.8-1.4,2.6-1.9,4-1.1l19.7,11.1
			c1.4,0.8,1.9,2.6,1.1,4C58.1,45.9,57.1,46.4,56.1,46.4z"/>
	</g>
</g>
</svg>
