<?xml version="1.0" encoding="utf-8" ?>
<svg baseProfile="tiny" height="100%" version="1.2" width="100%" xmlns="http://www.w3.org/2000/svg" xmlns:ev="http://www.w3.org/2001/xml-events" xmlns:xlink="http://www.w3.org/1999/xlink"><defs /><path d="M 102.00,49.00 L 101.00,49.00 L 100.00,49.00 L 99.00,49.00 L 98.00,49.00 L 97.00,49.00 L 96.00,49.00 L 95.00,49.00 L 94.00,49.00 L 93.00,48.00 L 93.00,48.00 L 92.00,48.00 L 91.00,47.00 L 91.00,47.00 L 90.00,46.00 L 90.00,45.00 L 90.00,45.00 L 89.00,44.00 L 89.00,43.00 L 90.00,42.00 L 90.00,42.00 L 90.00,41.00 L 91.00,40.00 L 91.00,40.00 L 92.00,39.00 L 92.00,39.00 L 93.00,38.00 L 94.00,38.00 L 95.00,38.00 L 96.00,38.00 L 97.00,38.00 L 98.00,38.00 L 99.00,38.00 L 100.00,38.00 L 100.00,38.00 L 101.00,37.00 L 102.00,37.00 L 102.00,37.00 L 103.00,36.00 L 103.00,36.00 L 104.00,35.00 L 104.00,35.00 L 105.00,34.00 L 105.00,34.00 L 105.00,33.00 L 106.00,32.00 L 106.00,32.00 L 106.00,31.00 L 106.00,30.00 L 106.00,29.00 L 107.00,28.00 L 107.00,28.00 L 107.00,27.00 L 107.00,26.00 L 107.00,25.00 L 107.00,24.00 L 107.00,23.00 L 107.00,22.00 L 107.00,21.00 L 107.00,21.00 L 106.00,21.00 L 105.00,21.00 L 104.00,21.00 L 103.00,21.00 L 102.00,21.00 L 101.00,21.00 L 100.00,21.00 L 99.00,21.00 L 98.00,21.00 L 97.00,21.00 L 96.00,21.00 L 95.00,21.00 L 94.00,21.00 L 93.00,21.00 L 92.00,21.00 L 91.00,21.00 L 90.00,21.00 L 89.00,21.00 L 88.00,21.00 L 87.00,21.00 L 86.00,21.00 L 85.00,21.00 L 84.00,21.00 L 83.00,21.00 L 82.00,21.00 L 81.00,21.00 L 81.00,21.00 L 81.00,22.00 L 81.00,23.00 L 81.00,24.00 L 81.00,25.00 L 81.00,26.00 L 81.00,27.00 L 81.00,28.00 L 81.00,29.00 L 81.00,30.00 L 80.00,31.00 L 80.00,31.00 L 80.00,32.00 L 79.00,33.00 L 78.00,33.00 L 78.00,33.00 L 77.00,34.00 L 76.00,34.00 L 75.00,34.00 L 74.00,34.00 L 73.00,34.00 L 72.00,33.00 L 72.00,33.00 L 71.00,32.00 L 71.00,32.00 L 70.00,31.00 L 70.00,30.00 L 70.00,29.00 L 70.00,28.00 L 70.00,27.00 L 70.00,26.00 L 70.00,25.00 L 70.00,24.00 L 70.00,23.00 L 70.00,22.00 L 70.00,21.00 L 70.00,20.00 L 70.00,19.00 L 70.00,18.00 L 70.00,17.00 L 70.00,16.00 L 70.00,15.00 L 70.00,14.00 L 71.00,13.00 L 71.00,13.00 L 72.00,12.00 L 72.00,12.00 L 73.00,11.00 L 73.00,11.00 L 74.00,10.00 L 75.00,10.00 L 76.00,10.00 L 77.00,10.00 L 78.00,10.00 L 79.00,10.00 L 80.00,10.00 L 81.00,10.00 L 82.00,10.00 L 83.00,10.00 L 84.00,10.00 L 85.00,10.00 L 86.00,10.00 L 87.00,10.00 L 88.00,10.00 L 89.00,10.00 L 89.00,10.00 L 89.00,9.00 L 90.00,8.00 L 90.00,8.00 L 90.00,7.00 L 91.00,6.00 L 92.00,6.00 L 92.00,6.00 L 93.00,5.00 L 94.00,5.00 L 95.00,5.00 L 96.00,5.00 L 97.00,6.00 L 97.00,6.00 L 98.00,7.00 L 98.00,7.00 L 99.00,8.00 L 99.00,8.00 L 100.00,9.00 L 100.00,10.00 L 100.00,10.00 L 101.00,10.00 L 102.00,10.00 L 103.00,10.00 L 104.00,10.00 L 105.00,10.00 L 106.00,10.00 L 107.00,10.00 L 108.00,10.00 L 109.00,10.00 L 110.00,10.00 L 111.00,10.00 L 112.00,10.00 L 113.00,10.00 L 114.00,10.00 L 115.00,10.00 L 116.00,10.00 L 117.00,11.00 L 117.00,11.00 L 118.00,12.00 L 118.00,12.00 L 119.00,13.00 L 119.00,14.00 L 119.00,15.00 L 119.00,16.00 L 119.00,17.00 L 119.00,18.00 L 119.00,19.00 L 119.00,20.00 L 118.00,21.00 L 118.00,21.00 L 118.00,22.00 L 118.00,23.00 L 118.00,24.00 L 118.00,25.00 L 118.00,26.00 L 118.00,27.00 L 118.00,28.00 L 117.00,29.00 L 117.00,29.00 L 117.00,30.00 L 117.00,31.00 L 117.00,32.00 L 117.00,33.00 L 116.00,34.00 L 116.00,34.00 L 116.00,35.00 L 116.00,36.00 L 115.00,37.00 L 115.00,37.00 L 115.00,38.00 L 114.00,39.00 L 114.00,39.00 L 114.00,40.00 L 113.00,41.00 L 113.00,41.00 L 112.00,42.00 L 112.00,42.00 L 111.00,43.00 L 111.00,43.00 L 110.00,44.00 L 110.00,44.00 L 109.00,45.00 L 109.00,45.00 L 108.00,46.00 L 108.00,46.00 L 107.00,47.00 L 106.00,47.00 L 106.00,47.00 L 105.00,48.00 L 104.00,48.00 L 103.00,48.00 L 103.00,48.00 L 102.00,49.00 Z" fill="#004098" stroke="none" /><path d="M 214.00,49.00 L 213.00,49.00 L 212.00,49.00 L 211.00,49.00 L 210.00,49.00 L 209.00,49.00 L 208.00,49.00 L 207.00,49.00 L 206.00,48.00 L 206.00,48.00 L 205.00,47.00 L 205.00,47.00 L 204.00,46.00 L 204.00,46.00 L 203.00,45.00 L 203.00,44.00 L 203.00,43.00 L 203.00,42.00 L 204.00,41.00 L 204.00,41.00 L 204.00,40.00 L 205.00,39.00 L 205.00,39.00 L 206.00,38.00 L 207.00,38.00 L 208.00,38.00 L 209.00,38.00 L 210.00,38.00 L 211.00,38.00 L 211.00,38.00 L 212.00,37.00 L 213.00,37.00 L 213.00,37.00 L 214.00,36.00 L 214.00,36.00 L 214.00,35.00 L 215.00,34.00 L 215.00,34.00 L 216.00,33.00 L 216.00,33.00 L 216.00,32.00 L 216.00,31.00 L 216.00,30.00 L 217.00,29.00 L 217.00,29.00 L 217.00,28.00 L 217.00,27.00 L 217.00,26.00 L 217.00,25.00 L 217.00,24.00 L 217.00,23.00 L 217.00,22.00 L 217.00,21.00 L 217.00,21.00 L 216.00,21.00 L 215.00,21.00 L 214.00,21.00 L 213.00,21.00 L 212.00,21.00 L 211.00,21.00 L 210.00,21.00 L 209.00,21.00 L 208.00,21.00 L 207.00,21.00 L 206.00,21.00 L 205.00,21.00 L 205.00,21.00 L 205.00,22.00 L 205.00,23.00 L 205.00,24.00 L 205.00,25.00 L 205.00,26.00 L 205.00,27.00 L 204.00,28.00 L 204.00,28.00 L 204.00,29.00 L 204.00,30.00 L 204.00,31.00 L 204.00,32.00 L 203.00,33.00 L 203.00,33.00 L 203.00,34.00 L 203.00,35.00 L 202.00,36.00 L 202.00,36.00 L 202.00,37.00 L 202.00,38.00 L 201.00,39.00 L 201.00,39.00 L 200.00,40.00 L 200.00,40.00 L 200.00,41.00 L 199.00,42.00 L 199.00,42.00 L 198.00,43.00 L 198.00,43.00 L 197.00,44.00 L 197.00,44.00 L 196.00,45.00 L 196.00,45.00 L 195.00,46.00 L 195.00,46.00 L 194.00,47.00 L 193.00,47.00 L 193.00,47.00 L 192.00,48.00 L 191.00,48.00 L 190.00,48.00 L 190.00,48.00 L 189.00,49.00 L 188.00,49.00 L 187.00,49.00 L 186.00,49.00 L 185.00,49.00 L 184.00,49.00 L 183.00,48.00 L 183.00,48.00 L 182.00,48.00 L 181.00,47.00 L 181.00,47.00 L 180.00,46.00 L 180.00,45.00 L 180.00,44.00 L 180.00,43.00 L 180.00,42.00 L 180.00,41.00 L 181.00,40.00 L 181.00,40.00 L 182.00,39.00 L 182.00,39.00 L 183.00,38.00 L 184.00,38.00 L 185.00,38.00 L 186.00,38.00 L 186.00,38.00 L 187.00,37.00 L 188.00,37.00 L 189.00,37.00 L 189.00,37.00 L 190.00,36.00 L 190.00,36.00 L 191.00,35.00 L 191.00,35.00 L 192.00,34.00 L 192.00,34.00 L 192.00,33.00 L 192.00,32.00 L 193.00,31.00 L 193.00,31.00 L 193.00,30.00 L 193.00,29.00 L 193.00,28.00 L 193.00,27.00 L 194.00,26.00 L 194.00,26.00 L 194.00,25.00 L 194.00,24.00 L 194.00,23.00 L 194.00,22.00 L 194.00,21.00 L 194.00,21.00 L 193.00,21.00 L 192.00,21.00 L 191.00,21.00 L 190.00,21.00 L 189.00,21.00 L 188.00,21.00 L 187.00,21.00 L 186.00,21.00 L 185.00,21.00 L 184.00,20.00 L 184.00,20.00 L 183.00,19.00 L 183.00,19.00 L 182.00,18.00 L 182.00,17.00 L 182.00,17.00 L 181.00,16.00 L 181.00,15.00 L 182.00,14.00 L 182.00,14.00 L 182.00,13.00 L 183.00,12.00 L 183.00,12.00 L 184.00,11.00 L 184.00,11.00 L 185.00,10.00 L 186.00,10.00 L 187.00,10.00 L 188.00,10.00 L 189.00,10.00 L 190.00,10.00 L 191.00,10.00 L 192.00,10.00 L 193.00,10.00 L 194.00,10.00 L 195.00,10.00 L 196.00,10.00 L 196.00,10.00 L 196.00,9.00 L 197.00,8.00 L 197.00,8.00 L 198.00,7.00 L 198.00,7.00 L 199.00,6.00 L 200.00,6.00 L 200.00,6.00 L 201.00,5.00 L 202.00,5.00 L 203.00,5.00 L 204.00,6.00 L 204.00,6.00 L 205.00,6.00 L 206.00,7.00 L 206.00,8.00 L 206.00,8.00 L 207.00,9.00 L 207.00,10.00 L 207.00,10.00 L 208.00,10.00 L 209.00,10.00 L 210.00,10.00 L 211.00,10.00 L 212.00,10.00 L 213.00,10.00 L 214.00,10.00 L 215.00,10.00 L 216.00,10.00 L 217.00,10.00 L 218.00,10.00 L 219.00,10.00 L 220.00,10.00 L 221.00,10.00 L 222.00,10.00 L 223.00,10.00 L 224.00,10.00 L 225.00,10.00 L 226.00,10.00 L 227.00,11.00 L 227.00,11.00 L 228.00,12.00 L 228.00,12.00 L 229.00,13.00 L 229.00,14.00 L 229.00,15.00 L 229.00,16.00 L 229.00,17.00 L 229.00,18.00 L 229.00,19.00 L 229.00,20.00 L 229.00,21.00 L 229.00,22.00 L 229.00,23.00 L 228.00,24.00 L 228.00,24.00 L 228.00,25.00 L 228.00,26.00 L 228.00,27.00 L 228.00,28.00 L 228.00,29.00 L 228.00,30.00 L 227.00,31.00 L 227.00,31.00 L 227.00,32.00 L 227.00,33.00 L 227.00,34.00 L 226.00,35.00 L 226.00,35.00 L 226.00,36.00 L 226.00,37.00 L 225.00,38.00 L 225.00,38.00 L 225.00,39.00 L 224.00,40.00 L 224.00,40.00 L 223.00,41.00 L 223.00,41.00 L 223.00,42.00 L 222.00,43.00 L 222.00,43.00 L 221.00,44.00 L 221.00,44.00 L 220.00,45.00 L 220.00,45.00 L 219.00,46.00 L 219.00,46.00 L 218.00,47.00 L 217.00,47.00 L 217.00,47.00 L 216.00,48.00 L 215.00,48.00 L 215.00,48.00 L 214.00,49.00 Z" fill="#004098" stroke="none" /><path d="M 143.00,49.00 L 142.00,49.00 L 141.00,49.00 L 140.00,49.00 L 139.00,49.00 L 138.00,49.00 L 137.00,49.00 L 136.00,49.00 L 135.00,49.00 L 134.00,49.00 L 133.00,49.00 L 132.00,49.00 L 131.00,48.00 L 131.00,48.00 L 130.00,48.00 L 129.00,47.00 L 129.00,47.00 L 128.00,46.00 L 128.00,46.00 L 127.00,45.00 L 127.00,44.00 L 127.00,43.00 L 127.00,42.00 L 128.00,41.00 L 128.00,41.00 L 128.00,40.00 L 129.00,39.00 L 129.00,39.00 L 130.00,38.00 L 131.00,38.00 L 132.00,38.00 L 133.00,38.00 L 134.00,38.00 L 135.00,38.00 L 136.00,38.00 L 137.00,38.00 L 138.00,38.00 L 139.00,38.00 L 140.00,38.00 L 141.00,38.00 L 141.00,38.00 L 142.00,37.00 L 143.00,37.00 L 143.00,37.00 L 144.00,36.00 L 144.00,36.00 L 144.00,35.00 L 145.00,34.00 L 145.00,34.00 L 145.00,33.00 L 145.00,33.00 L 144.00,33.00 L 143.00,33.00 L 142.00,33.00 L 141.00,33.00 L 140.00,33.00 L 139.00,33.00 L 138.00,33.00 L 137.00,33.00 L 136.00,33.00 L 135.00,33.00 L 134.00,33.00 L 133.00,33.00 L 132.00,33.00 L 131.00,33.00 L 130.00,32.00 L 130.00,32.00 L 129.00,32.00 L 128.00,31.00 L 128.00,30.00 L 128.00,30.00 L 127.00,29.00 L 127.00,28.00 L 127.00,27.00 L 127.00,26.00 L 127.00,25.00 L 128.00,24.00 L 128.00,24.00 L 129.00,23.00 L 129.00,23.00 L 130.00,22.00 L 131.00,22.00 L 132.00,22.00 L 133.00,22.00 L 134.00,22.00 L 135.00,22.00 L 136.00,22.00 L 137.00,22.00 L 138.00,22.00 L 139.00,22.00 L 140.00,22.00 L 141.00,22.00 L 142.00,22.00 L 143.00,22.00 L 144.00,22.00 L 145.00,22.00 L 146.00,22.00 L 147.00,22.00 L 147.00,22.00 L 147.00,21.00 L 147.00,20.00 L 147.00,19.00 L 147.00,18.00 L 148.00,17.00 L 148.00,17.00 L 148.00,17.00 L 147.00,17.00 L 146.00,17.00 L 145.00,17.00 L 144.00,17.00 L 143.00,17.00 L 142.00,17.00 L 141.00,17.00 L 140.00,17.00 L 139.00,17.00 L 138.00,17.00 L 137.00,17.00 L 136.00,17.00 L 135.00,17.00 L 134.00,17.00 L 133.00,17.00 L 132.00,17.00 L 131.00,17.00 L 130.00,17.00 L 129.00,16.00 L 129.00,16.00 L 128.00,15.00 L 128.00,15.00 L 127.00,14.00 L 127.00,13.00 L 127.00,12.00 L 127.00,11.00 L 127.00,10.00 L 128.00,9.00 L 128.00,9.00 L 128.00,8.00 L 129.00,7.00 L 130.00,7.00 L 130.00,7.00 L 131.00,6.00 L 132.00,6.00 L 133.00,6.00 L 134.00,6.00 L 135.00,6.00 L 136.00,6.00 L 137.00,6.00 L 138.00,6.00 L 139.00,6.00 L 140.00,6.00 L 141.00,6.00 L 142.00,6.00 L 143.00,6.00 L 144.00,6.00 L 145.00,6.00 L 146.00,6.00 L 147.00,6.00 L 148.00,6.00 L 149.00,6.00 L 150.00,6.00 L 151.00,6.00 L 152.00,6.00 L 153.00,6.00 L 154.00,6.00 L 155.00,6.00 L 156.00,6.00 L 157.00,6.00 L 158.00,6.00 L 159.00,6.00 L 160.00,6.00 L 161.00,6.00 L 162.00,6.00 L 163.00,6.00 L 164.00,6.00 L 165.00,6.00 L 166.00,6.00 L 167.00,6.00 L 168.00,6.00 L 169.00,7.00 L 169.00,7.00 L 170.00,7.00 L 171.00,8.00 L 171.00,8.00 L 172.00,9.00 L 172.00,9.00 L 173.00,10.00 L 173.00,11.00 L 173.00,12.00 L 173.00,13.00 L 172.00,14.00 L 172.00,14.00 L 172.00,15.00 L 171.00,16.00 L 171.00,16.00 L 170.00,17.00 L 169.00,17.00 L 168.00,17.00 L 167.00,17.00 L 166.00,17.00 L 165.00,17.00 L 164.00,17.00 L 163.00,17.00 L 162.00,17.00 L 161.00,17.00 L 160.00,17.00 L 159.00,17.00 L 159.00,17.00 L 159.00,18.00 L 158.00,19.00 L 158.00,19.00 L 158.00,20.00 L 158.00,21.00 L 158.00,22.00 L 158.00,22.00 L 159.00,22.00 L 160.00,22.00 L 161.00,22.00 L 162.00,22.00 L 163.00,22.00 L 164.00,22.00 L 165.00,22.00 L 166.00,22.00 L 167.00,22.00 L 168.00,22.00 L 169.00,22.00 L 170.00,22.00 L 171.00,23.00 L 171.00,23.00 L 172.00,24.00 L 172.00,24.00 L 173.00,25.00 L 173.00,26.00 L 173.00,27.00 L 173.00,28.00 L 173.00,29.00 L 172.00,30.00 L 172.00,30.00 L 172.00,31.00 L 171.00,32.00 L 170.00,32.00 L 170.00,32.00 L 169.00,33.00 L 168.00,33.00 L 167.00,33.00 L 166.00,33.00 L 165.00,33.00 L 164.00,33.00 L 163.00,33.00 L 162.00,33.00 L 161.00,33.00 L 160.00,33.00 L 159.00,33.00 L 158.00,33.00 L 157.00,33.00 L 156.00,33.00 L 156.00,33.00 L 156.00,34.00 L 156.00,35.00 L 156.00,36.00 L 156.00,37.00 L 155.00,38.00 L 155.00,38.00 L 155.00,39.00 L 154.00,40.00 L 154.00,40.00 L 154.00,41.00 L 153.00,42.00 L 153.00,42.00 L 152.00,43.00 L 152.00,43.00 L 151.00,44.00 L 151.00,44.00 L 150.00,45.00 L 150.00,45.00 L 149.00,46.00 L 149.00,46.00 L 148.00,47.00 L 147.00,47.00 L 147.00,47.00 L 146.00,48.00 L 145.00,48.00 L 144.00,48.00 L 144.00,48.00 L 143.00,49.00 Z" fill="#004098" stroke="none" /><path d="M 10.00,26.00 L 9.00,26.00 L 8.00,26.00 L 7.00,25.00 L 7.00,25.00 L 6.00,25.00 L 5.00,24.00 L 5.00,23.00 L 5.00,22.00 L 5.00,21.00 L 5.00,20.00 L 6.00,19.00 L 6.00,19.00 L 7.00,18.00 L 8.00,18.00 L 8.00,18.00 L 9.00,17.00 L 10.00,17.00 L 10.00,17.00 L 11.00,16.00 L 12.00,16.00 L 12.00,16.00 L 13.00,15.00 L 14.00,15.00 L 14.00,15.00 L 15.00,14.00 L 15.00,14.00 L 16.00,13.00 L 17.00,13.00 L 17.00,13.00 L 18.00,12.00 L 19.00,12.00 L 19.00,12.00 L 20.00,11.00 L 21.00,11.00 L 21.00,11.00 L 22.00,10.00 L 22.00,10.00 L 23.00,9.00 L 24.00,9.00 L 24.00,9.00 L 25.00,8.00 L 26.00,8.00 L 26.00,8.00 L 27.00,7.00 L 28.00,7.00 L 29.00,7.00 L 30.00,7.00 L 31.00,8.00 L 31.00,8.00 L 32.00,9.00 L 32.00,10.00 L 32.00,11.00 L 32.00,12.00 L 32.00,13.00 L 31.00,14.00 L 31.00,14.00 L 30.00,15.00 L 29.00,15.00 L 29.00,15.00 L 28.00,16.00 L 27.00,16.00 L 27.00,16.00 L 26.00,17.00 L 25.00,17.00 L 25.00,17.00 L 24.00,18.00 L 23.00,18.00 L 23.00,18.00 L 22.00,19.00 L 22.00,19.00 L 21.00,20.00 L 20.00,20.00 L 20.00,20.00 L 19.00,21.00 L 18.00,21.00 L 18.00,21.00 L 17.00,22.00 L 16.00,22.00 L 16.00,22.00 L 15.00,23.00 L 15.00,23.00 L 14.00,24.00 L 13.00,24.00 L 13.00,24.00 L 12.00,25.00 L 11.00,25.00 L 11.00,25.00 L 10.00,26.00 Z" fill="#004098" stroke="none" /><path d="M 57.00,26.00 L 56.00,26.00 L 55.00,26.00 L 54.00,25.00 L 54.00,25.00 L 53.00,25.00 L 52.00,24.00 L 52.00,24.00 L 51.00,24.00 L 50.00,23.00 L 50.00,23.00 L 49.00,23.00 L 48.00,22.00 L 48.00,22.00 L 47.00,22.00 L 46.00,21.00 L 46.00,21.00 L 45.00,20.00 L 45.00,20.00 L 44.00,20.00 L 43.00,19.00 L 43.00,19.00 L 42.00,19.00 L 41.00,18.00 L 41.00,18.00 L 40.00,18.00 L 39.00,17.00 L 39.00,17.00 L 38.00,16.00 L 38.00,16.00 L 37.00,16.00 L 36.00,15.00 L 36.00,15.00 L 35.00,15.00 L 34.00,14.00 L 34.00,14.00 L 33.00,13.00 L 33.00,13.00 L 32.00,12.00 L 32.00,11.00 L 32.00,10.00 L 32.00,9.00 L 33.00,8.00 L 33.00,8.00 L 34.00,7.00 L 35.00,7.00 L 36.00,7.00 L 37.00,7.00 L 38.00,8.00 L 38.00,8.00 L 39.00,8.00 L 40.00,9.00 L 40.00,9.00 L 41.00,9.00 L 42.00,10.00 L 42.00,10.00 L 43.00,10.00 L 44.00,11.00 L 44.00,11.00 L 45.00,12.00 L 45.00,12.00 L 46.00,12.00 L 47.00,13.00 L 47.00,13.00 L 48.00,13.00 L 49.00,14.00 L 49.00,14.00 L 50.00,14.00 L 51.00,15.00 L 51.00,15.00 L 52.00,16.00 L 52.00,16.00 L 53.00,16.00 L 54.00,17.00 L 54.00,17.00 L 55.00,17.00 L 56.00,18.00 L 56.00,18.00 L 57.00,18.00 L 58.00,19.00 L 58.00,19.00 L 59.00,20.00 L 59.00,21.00 L 59.00,22.00 L 59.00,23.00 L 59.00,24.00 L 58.00,25.00 L 58.00,25.00 L 57.00,26.00 Z" fill="#004098" stroke="none" /><path d="M 246.00,30.00 L 245.00,30.00 L 244.00,30.00 L 243.00,30.00 L 242.00,30.00 L 241.00,30.00 L 240.00,29.00 L 240.00,29.00 L 239.00,29.00 L 238.00,28.00 L 238.00,27.00 L 238.00,26.00 L 238.00,25.00 L 238.00,24.00 L 238.00,23.00 L 238.00,22.00 L 238.00,21.00 L 238.00,20.00 L 238.00,19.00 L 238.00,18.00 L 238.00,17.00 L 238.00,16.00 L 238.00,15.00 L 238.00,14.00 L 238.00,13.00 L 238.00,12.00 L 238.00,11.00 L 238.00,10.00 L 239.00,9.00 L 239.00,9.00 L 240.00,8.00 L 240.00,8.00 L 241.00,7.00 L 242.00,7.00 L 243.00,7.00 L 244.00,7.00 L 245.00,7.00 L 246.00,8.00 L 246.00,8.00 L 247.00,9.00 L 247.00,9.00 L 248.00,10.00 L 248.00,11.00 L 248.00,11.00 L 249.00,12.00 L 249.00,13.00 L 249.00,14.00 L 249.00,15.00 L 249.00,16.00 L 249.00,17.00 L 249.00,18.00 L 249.00,19.00 L 249.00,20.00 L 249.00,21.00 L 249.00,22.00 L 249.00,23.00 L 249.00,24.00 L 249.00,25.00 L 249.00,26.00 L 248.00,27.00 L 248.00,27.00 L 248.00,28.00 L 247.00,29.00 L 247.00,29.00 L 246.00,30.00 Z" fill="#004098" stroke="none" /><path d="M 259.00,30.00 L 258.00,30.00 L 257.00,30.00 L 256.00,30.00 L 255.00,30.00 L 254.00,30.00 L 253.00,29.00 L 253.00,29.00 L 252.00,28.00 L 252.00,27.00 L 252.00,27.00 L 251.00,26.00 L 251.00,25.00 L 251.00,24.00 L 251.00,23.00 L 251.00,22.00 L 251.00,21.00 L 251.00,20.00 L 251.00,19.00 L 251.00,18.00 L 251.00,17.00 L 251.00,16.00 L 251.00,15.00 L 251.00,14.00 L 251.00,13.00 L 251.00,12.00 L 251.00,11.00 L 252.00,10.00 L 252.00,10.00 L 253.00,9.00 L 253.00,9.00 L 254.00,8.00 L 254.00,8.00 L 255.00,7.00 L 256.00,7.00 L 257.00,7.00 L 258.00,7.00 L 259.00,7.00 L 260.00,8.00 L 260.00,8.00 L 261.00,9.00 L 261.00,9.00 L 262.00,10.00 L 262.00,11.00 L 262.00,12.00 L 262.00,13.00 L 262.00,14.00 L 262.00,15.00 L 262.00,16.00 L 262.00,17.00 L 262.00,18.00 L 262.00,19.00 L 262.00,20.00 L 262.00,21.00 L 262.00,22.00 L 262.00,23.00 L 262.00,24.00 L 262.00,25.00 L 262.00,26.00 L 262.00,27.00 L 261.00,28.00 L 261.00,28.00 L 260.00,29.00 L 260.00,29.00 L 259.00,30.00 Z" fill="#004098" stroke="none" /><path d="M 262.00,49.00 L 261.00,49.00 L 260.00,49.00 L 259.00,49.00 L 258.00,49.00 L 257.00,49.00 L 256.00,49.00 L 255.00,48.00 L 255.00,48.00 L 254.00,48.00 L 253.00,47.00 L 253.00,47.00 L 252.00,46.00 L 252.00,46.00 L 251.00,45.00 L 251.00,44.00 L 251.00,43.00 L 251.00,42.00 L 252.00,41.00 L 252.00,41.00 L 252.00,40.00 L 253.00,39.00 L 253.00,39.00 L 254.00,38.00 L 255.00,38.00 L 256.00,38.00 L 257.00,38.00 L 258.00,38.00 L 259.00,38.00 L 259.00,38.00 L 260.00,37.00 L 261.00,37.00 L 261.00,37.00 L 262.00,36.00 L 263.00,36.00 L 263.00,36.00 L 264.00,35.00 L 264.00,35.00 L 265.00,34.00 L 265.00,34.00 L 266.00,33.00 L 266.00,33.00 L 266.00,32.00 L 267.00,31.00 L 267.00,31.00 L 267.00,30.00 L 268.00,29.00 L 268.00,29.00 L 268.00,28.00 L 268.00,27.00 L 269.00,26.00 L 269.00,26.00 L 269.00,25.00 L 269.00,24.00 L 269.00,23.00 L 270.00,22.00 L 270.00,22.00 L 270.00,21.00 L 270.00,20.00 L 271.00,19.00 L 271.00,19.00 L 271.00,18.00 L 271.00,17.00 L 272.00,16.00 L 272.00,16.00 L 272.00,15.00 L 272.00,14.00 L 272.00,13.00 L 273.00,12.00 L 273.00,12.00 L 273.00,11.00 L 273.00,10.00 L 274.00,9.00 L 274.00,9.00 L 275.00,8.00 L 275.00,8.00 L 276.00,7.00 L 277.00,7.00 L 278.00,7.00 L 279.00,7.00 L 280.00,7.00 L 281.00,7.00 L 282.00,8.00 L 282.00,8.00 L 283.00,9.00 L 283.00,9.00 L 284.00,10.00 L 284.00,11.00 L 284.00,12.00 L 284.00,13.00 L 284.00,14.00 L 283.00,15.00 L 283.00,15.00 L 283.00,16.00 L 283.00,17.00 L 282.00,18.00 L 282.00,18.00 L 282.00,19.00 L 282.00,20.00 L 281.00,21.00 L 281.00,21.00 L 281.00,22.00 L 281.00,23.00 L 281.00,24.00 L 280.00,25.00 L 280.00,25.00 L 280.00,26.00 L 280.00,27.00 L 279.00,28.00 L 279.00,28.00 L 279.00,29.00 L 279.00,30.00 L 278.00,31.00 L 278.00,31.00 L 278.00,32.00 L 278.00,33.00 L 277.00,34.00 L 277.00,34.00 L 277.00,35.00 L 276.00,36.00 L 276.00,36.00 L 276.00,37.00 L 275.00,38.00 L 275.00,38.00 L 275.00,39.00 L 274.00,40.00 L 274.00,40.00 L 273.00,41.00 L 273.00,41.00 L 273.00,42.00 L 272.00,43.00 L 272.00,43.00 L 271.00,44.00 L 271.00,44.00 L 270.00,45.00 L 270.00,45.00 L 269.00,46.00 L 268.00,46.00 L 268.00,46.00 L 267.00,47.00 L 267.00,47.00 L 266.00,48.00 L 265.00,48.00 L 264.00,48.00 L 263.00,48.00 L 263.00,48.00 L 262.00,49.00 Z" fill="#004098" stroke="none" /><path d="M 11.00,36.00 L 10.00,36.00 L 9.00,36.00 L 8.00,36.00 L 7.00,36.00 L 6.00,35.00 L 6.00,35.00 L 5.00,34.00 L 5.00,33.00 L 5.00,32.00 L 5.00,31.00 L 6.00,30.00 L 6.00,30.00 L 7.00,29.00 L 7.00,29.00 L 8.00,28.00 L 9.00,28.00 L 9.00,28.00 L 10.00,27.00 L 11.00,27.00 L 11.00,27.00 L 12.00,26.00 L 13.00,26.00 L 13.00,26.00 L 14.00,25.00 L 14.00,25.00 L 15.00,24.00 L 16.00,24.00 L 16.00,24.00 L 17.00,23.00 L 18.00,23.00 L 18.00,23.00 L 19.00,22.00 L 20.00,22.00 L 20.00,22.00 L 21.00,21.00 L 22.00,21.00 L 22.00,21.00 L 23.00,20.00 L 23.00,20.00 L 24.00,19.00 L 25.00,19.00 L 25.00,19.00 L 26.00,18.00 L 27.00,18.00 L 27.00,18.00 L 28.00,17.00 L 29.00,18.00 L 29.00,18.00 L 30.00,18.00 L 31.00,19.00 L 31.00,19.00 L 32.00,20.00 L 32.00,21.00 L 32.00,22.00 L 32.00,23.00 L 31.00,24.00 L 31.00,24.00 L 30.00,25.00 L 30.00,25.00 L 29.00,26.00 L 28.00,26.00 L 28.00,26.00 L 27.00,27.00 L 26.00,27.00 L 26.00,27.00 L 25.00,28.00 L 24.00,28.00 L 24.00,28.00 L 23.00,29.00 L 23.00,29.00 L 22.00,30.00 L 21.00,30.00 L 21.00,30.00 L 20.00,31.00 L 19.00,31.00 L 19.00,31.00 L 18.00,32.00 L 17.00,32.00 L 17.00,32.00 L 16.00,33.00 L 16.00,33.00 L 15.00,34.00 L 14.00,34.00 L 14.00,34.00 L 13.00,35.00 L 12.00,35.00 L 12.00,35.00 L 11.00,36.00 Z" fill="#004098" stroke="none" /><path d="M 57.00,36.00 L 56.00,36.00 L 55.00,36.00 L 54.00,36.00 L 53.00,35.00 L 53.00,35.00 L 52.00,35.00 L 51.00,34.00 L 51.00,34.00 L 50.00,34.00 L 49.00,33.00 L 49.00,33.00 L 48.00,33.00 L 47.00,32.00 L 47.00,32.00 L 46.00,32.00 L 45.00,31.00 L 45.00,31.00 L 44.00,30.00 L 44.00,30.00 L 43.00,30.00 L 42.00,29.00 L 42.00,29.00 L 41.00,29.00 L 40.00,28.00 L 40.00,28.00 L 39.00,28.00 L 38.00,27.00 L 38.00,27.00 L 37.00,26.00 L 37.00,26.00 L 36.00,26.00 L 35.00,25.00 L 35.00,25.00 L 34.00,25.00 L 33.00,24.00 L 33.00,24.00 L 32.00,23.00 L 32.00,22.00 L 32.00,21.00 L 32.00,20.00 L 33.00,19.00 L 33.00,19.00 L 34.00,18.00 L 35.00,18.00 L 36.00,18.00 L 37.00,18.00 L 38.00,18.00 L 39.00,19.00 L 39.00,19.00 L 40.00,19.00 L 41.00,20.00 L 41.00,20.00 L 42.00,20.00 L 43.00,21.00 L 43.00,21.00 L 44.00,22.00 L 44.00,22.00 L 45.00,22.00 L 46.00,23.00 L 46.00,23.00 L 47.00,23.00 L 48.00,24.00 L 48.00,24.00 L 49.00,24.00 L 50.00,25.00 L 50.00,25.00 L 51.00,26.00 L 51.00,26.00 L 52.00,26.00 L 53.00,27.00 L 53.00,27.00 L 54.00,27.00 L 55.00,28.00 L 55.00,28.00 L 56.00,28.00 L 57.00,29.00 L 57.00,29.00 L 58.00,30.00 L 58.00,30.00 L 59.00,31.00 L 59.00,32.00 L 59.00,33.00 L 59.00,34.00 L 58.00,35.00 L 58.00,35.00 L 57.00,36.00 Z" fill="#004098" stroke="none" /><path d="M 10.00,47.00 L 9.00,47.00 L 8.00,47.00 L 7.00,46.00 L 7.00,46.00 L 6.00,46.00 L 5.00,45.00 L 5.00,44.00 L 5.00,43.00 L 5.00,42.00 L 5.00,41.00 L 6.00,40.00 L 6.00,40.00 L 7.00,39.00 L 8.00,39.00 L 8.00,39.00 L 9.00,38.00 L 10.00,38.00 L 10.00,38.00 L 11.00,37.00 L 12.00,37.00 L 12.00,37.00 L 13.00,36.00 L 14.00,36.00 L 14.00,36.00 L 15.00,35.00 L 15.00,35.00 L 16.00,34.00 L 17.00,34.00 L 17.00,34.00 L 18.00,33.00 L 19.00,33.00 L 19.00,33.00 L 20.00,32.00 L 21.00,32.00 L 21.00,32.00 L 22.00,31.00 L 22.00,31.00 L 23.00,30.00 L 24.00,30.00 L 24.00,30.00 L 25.00,29.00 L 26.00,29.00 L 26.00,29.00 L 27.00,28.00 L 28.00,28.00 L 29.00,28.00 L 30.00,28.00 L 31.00,29.00 L 31.00,29.00 L 32.00,30.00 L 32.00,31.00 L 32.00,32.00 L 32.00,33.00 L 32.00,34.00 L 31.00,35.00 L 30.00,35.00 L 30.00,35.00 L 29.00,36.00 L 29.00,36.00 L 28.00,37.00 L 27.00,37.00 L 27.00,37.00 L 26.00,38.00 L 25.00,38.00 L 25.00,38.00 L 24.00,39.00 L 23.00,39.00 L 23.00,39.00 L 22.00,40.00 L 22.00,40.00 L 21.00,41.00 L 20.00,41.00 L 20.00,41.00 L 19.00,42.00 L 18.00,42.00 L 18.00,42.00 L 17.00,43.00 L 16.00,43.00 L 16.00,43.00 L 15.00,44.00 L 15.00,44.00 L 14.00,45.00 L 13.00,45.00 L 13.00,45.00 L 12.00,46.00 L 11.00,46.00 L 11.00,46.00 L 10.00,47.00 Z" fill="#004098" stroke="none" /><path d="M 57.00,47.00 L 56.00,47.00 L 55.00,47.00 L 54.00,46.00 L 54.00,46.00 L 53.00,46.00 L 52.00,45.00 L 52.00,45.00 L 51.00,45.00 L 50.00,44.00 L 50.00,44.00 L 49.00,44.00 L 48.00,43.00 L 48.00,43.00 L 47.00,43.00 L 46.00,42.00 L 46.00,42.00 L 45.00,41.00 L 45.00,41.00 L 44.00,41.00 L 43.00,40.00 L 43.00,40.00 L 42.00,40.00 L 41.00,39.00 L 41.00,39.00 L 40.00,39.00 L 39.00,38.00 L 39.00,38.00 L 38.00,38.00 L 37.00,37.00 L 37.00,37.00 L 36.00,36.00 L 36.00,36.00 L 35.00,36.00 L 34.00,35.00 L 34.00,35.00 L 33.00,34.00 L 33.00,34.00 L 32.00,33.00 L 32.00,32.00 L 32.00,31.00 L 33.00,30.00 L 33.00,30.00 L 34.00,29.00 L 34.00,29.00 L 35.00,28.00 L 36.00,28.00 L 37.00,28.00 L 38.00,29.00 L 38.00,29.00 L 39.00,29.00 L 40.00,30.00 L 40.00,30.00 L 41.00,30.00 L 42.00,31.00 L 42.00,31.00 L 43.00,32.00 L 43.00,32.00 L 44.00,32.00 L 45.00,33.00 L 45.00,33.00 L 46.00,33.00 L 47.00,34.00 L 47.00,34.00 L 48.00,34.00 L 49.00,35.00 L 49.00,35.00 L 50.00,35.00 L 51.00,36.00 L 51.00,36.00 L 52.00,37.00 L 52.00,37.00 L 53.00,37.00 L 54.00,38.00 L 54.00,38.00 L 55.00,38.00 L 56.00,39.00 L 56.00,39.00 L 57.00,39.00 L 58.00,40.00 L 58.00,40.00 L 59.00,41.00 L 59.00,42.00 L 59.00,43.00 L 59.00,44.00 L 59.00,45.00 L 58.00,46.00 L 58.00,46.00 L 57.00,47.00 Z" fill="#004098" stroke="none" /><path d="M 127.00,74.00 L 126.00,74.00 L 125.00,74.00 L 124.00,74.00 L 123.00,74.00 L 122.00,73.00 L 122.00,73.00 L 121.00,73.00 L 120.00,72.00 L 120.00,72.00 L 119.00,72.00 L 118.00,71.00 L 118.00,70.00 L 118.00,70.00 L 117.00,69.00 L 117.00,68.00 L 117.00,67.00 L 117.00,66.00 L 117.00,65.00 L 117.00,64.00 L 117.00,63.00 L 117.00,62.00 L 117.00,61.00 L 117.00,60.00 L 118.00,59.00 L 118.00,59.00 L 119.00,58.00 L 120.00,58.00 L 121.00,59.00 L 121.00,59.00 L 122.00,60.00 L 122.00,61.00 L 122.00,62.00 L 122.00,63.00 L 122.00,64.00 L 122.00,65.00 L 122.00,66.00 L 122.00,67.00 L 122.00,68.00 L 122.00,68.00 L 123.00,69.00 L 123.00,69.00 L 124.00,69.00 L 125.00,69.00 L 126.00,69.00 L 127.00,69.00 L 127.00,69.00 L 128.00,68.00 L 128.00,68.00 L 128.00,67.00 L 128.00,66.00 L 128.00,65.00 L 128.00,64.00 L 128.00,63.00 L 128.00,62.00 L 128.00,61.00 L 128.00,60.00 L 129.00,59.00 L 129.00,59.00 L 130.00,58.00 L 131.00,58.00 L 132.00,59.00 L 132.00,59.00 L 133.00,60.00 L 133.00,61.00 L 133.00,62.00 L 133.00,63.00 L 133.00,64.00 L 133.00,65.00 L 133.00,66.00 L 133.00,67.00 L 133.00,68.00 L 133.00,69.00 L 133.00,70.00 L 132.00,71.00 L 132.00,71.00 L 131.00,72.00 L 131.00,72.00 L 130.00,73.00 L 129.00,73.00 L 128.00,73.00 L 128.00,73.00 L 127.00,74.00 Z" fill="#004098" stroke="none" /><path d="M 148.00,73.00 L 147.00,73.00 L 146.00,73.00 L 145.00,73.00 L 144.00,73.00 L 143.00,73.00 L 142.00,73.00 L 141.00,73.00 L 140.00,73.00 L 139.00,73.00 L 138.00,73.00 L 137.00,73.00 L 136.00,72.00 L 136.00,72.00 L 135.00,71.00 L 135.00,70.00 L 135.00,70.00 L 134.00,69.00 L 134.00,68.00 L 134.00,67.00 L 134.00,66.00 L 134.00,65.00 L 134.00,64.00 L 134.00,63.00 L 135.00,62.00 L 135.00,62.00 L 135.00,61.00 L 136.00,60.00 L 136.00,60.00 L 137.00,59.00 L 138.00,59.00 L 138.00,59.00 L 139.00,58.00 L 140.00,58.00 L 141.00,58.00 L 142.00,58.00 L 143.00,58.00 L 144.00,58.00 L 145.00,58.00 L 146.00,58.00 L 147.00,58.00 L 148.00,59.00 L 148.00,59.00 L 149.00,60.00 L 149.00,61.00 L 149.00,62.00 L 148.00,63.00 L 147.00,63.00 L 146.00,63.00 L 145.00,63.00 L 144.00,63.00 L 143.00,63.00 L 142.00,63.00 L 141.00,63.00 L 140.00,63.00 L 140.00,63.00 L 139.00,64.00 L 139.00,64.00 L 138.00,65.00 L 138.00,65.00 L 138.00,66.00 L 138.00,66.00 L 139.00,67.00 L 139.00,68.00 L 139.00,68.00 L 140.00,68.00 L 141.00,68.00 L 142.00,68.00 L 143.00,68.00 L 144.00,68.00 L 145.00,68.00 L 146.00,68.00 L 147.00,68.00 L 148.00,69.00 L 148.00,69.00 L 149.00,70.00 L 149.00,71.00 L 149.00,72.00 L 148.00,73.00 Z" fill="#004098" stroke="none" /><path d="M 165.00,73.00 L 164.00,73.00 L 163.00,73.00 L 162.00,73.00 L 161.00,73.00 L 160.00,73.00 L 159.00,73.00 L 158.00,73.00 L 157.00,73.00 L 156.00,73.00 L 155.00,73.00 L 154.00,73.00 L 153.00,73.00 L 152.00,73.00 L 151.00,72.00 L 151.00,71.00 L 151.00,70.00 L 152.00,69.00 L 152.00,69.00 L 153.00,68.00 L 154.00,68.00 L 155.00,68.00 L 156.00,68.00 L 156.00,68.00 L 156.00,67.00 L 156.00,66.00 L 156.00,65.00 L 156.00,64.00 L 156.00,63.00 L 156.00,63.00 L 155.00,63.00 L 154.00,63.00 L 153.00,63.00 L 152.00,63.00 L 151.00,62.00 L 151.00,61.00 L 151.00,60.00 L 152.00,59.00 L 152.00,59.00 L 153.00,58.00 L 154.00,58.00 L 155.00,58.00 L 156.00,58.00 L 157.00,58.00 L 158.00,58.00 L 159.00,58.00 L 160.00,58.00 L 161.00,58.00 L 162.00,58.00 L 163.00,58.00 L 164.00,58.00 L 165.00,58.00 L 166.00,59.00 L 166.00,59.00 L 167.00,60.00 L 167.00,61.00 L 166.00,62.00 L 166.00,62.00 L 165.00,63.00 L 164.00,63.00 L 163.00,63.00 L 162.00,63.00 L 161.00,63.00 L 161.00,63.00 L 161.00,64.00 L 161.00,65.00 L 161.00,66.00 L 161.00,67.00 L 161.00,68.00 L 161.00,68.00 L 162.00,68.00 L 163.00,68.00 L 164.00,68.00 L 165.00,69.00 L 165.00,69.00 L 166.00,69.00 L 167.00,70.00 L 167.00,71.00 L 166.00,72.00 L 166.00,72.00 L 165.00,73.00 Z" fill="#004098" stroke="none" /><path d="M 183.00,73.00 L 182.00,73.00 L 181.00,73.00 L 180.00,72.00 L 180.00,72.00 L 179.00,72.00 L 178.00,72.00 L 177.00,71.00 L 177.00,71.00 L 176.00,71.00 L 175.00,70.00 L 175.00,70.00 L 174.00,70.00 L 173.00,69.00 L 173.00,69.00 L 173.00,69.00 L 173.00,70.00 L 173.00,71.00 L 173.00,72.00 L 172.00,73.00 L 171.00,73.00 L 170.00,73.00 L 169.00,73.00 L 168.00,72.00 L 168.00,71.00 L 168.00,70.00 L 168.00,69.00 L 168.00,68.00 L 168.00,67.00 L 168.00,66.00 L 168.00,65.00 L 168.00,64.00 L 168.00,63.00 L 168.00,62.00 L 168.00,61.00 L 168.00,60.00 L 169.00,59.00 L 169.00,59.00 L 170.00,58.00 L 171.00,58.00 L 172.00,59.00 L 172.00,59.00 L 173.00,60.00 L 173.00,61.00 L 173.00,62.00 L 173.00,63.00 L 173.00,63.00 L 173.00,63.00 L 174.00,62.00 L 174.00,62.00 L 175.00,61.00 L 176.00,61.00 L 176.00,61.00 L 177.00,60.00 L 178.00,60.00 L 178.00,60.00 L 179.00,59.00 L 180.00,59.00 L 181.00,59.00 L 181.00,59.00 L 182.00,58.00 L 183.00,59.00 L 183.00,59.00 L 184.00,59.00 L 185.00,60.00 L 185.00,61.00 L 184.00,62.00 L 184.00,62.00 L 183.00,63.00 L 183.00,63.00 L 182.00,64.00 L 181.00,64.00 L 180.00,64.00 L 180.00,64.00 L 179.00,65.00 L 178.00,65.00 L 178.00,65.00 L 177.00,66.00 L 177.00,66.00 L 177.00,66.00 L 178.00,66.00 L 179.00,67.00 L 179.00,67.00 L 180.00,67.00 L 181.00,68.00 L 181.00,68.00 L 182.00,68.00 L 183.00,68.00 L 184.00,69.00 L 184.00,69.00 L 185.00,70.00 L 185.00,71.00 L 184.00,72.00 L 184.00,72.00 L 183.00,73.00 Z" fill="#004098" stroke="none" /><path d="M 201.00,73.00 L 200.00,73.00 L 199.00,73.00 L 198.00,72.00 L 198.00,72.00 L 197.00,71.00 L 197.00,71.00 L 196.00,71.00 L 195.00,71.00 L 194.00,71.00 L 193.00,71.00 L 192.00,70.00 L 192.00,70.00 L 191.00,69.00 L 192.00,68.00 L 192.00,68.00 L 193.00,67.00 L 193.00,67.00 L 194.00,66.00 L 195.00,66.00 L 196.00,66.00 L 196.00,66.00 L 196.00,66.00 L 195.00,65.00 L 195.00,64.00 L 195.00,64.00 L 194.00,63.00 L 194.00,63.00 L 194.00,63.00 L 193.00,64.00 L 193.00,64.00 L 193.00,65.00 L 193.00,66.00 L 192.00,67.00 L 192.00,67.00 L 192.00,68.00 L 191.00,69.00 L 191.00,69.00 L 191.00,70.00 L 191.00,71.00 L 190.00,72.00 L 190.00,72.00 L 189.00,73.00 L 188.00,73.00 L 187.00,73.00 L 186.00,72.00 L 186.00,71.00 L 186.00,70.00 L 186.00,69.00 L 187.00,68.00 L 187.00,68.00 L 187.00,67.00 L 187.00,66.00 L 188.00,65.00 L 188.00,65.00 L 188.00,64.00 L 189.00,63.00 L 189.00,63.00 L 189.00,62.00 L 190.00,61.00 L 190.00,61.00 L 190.00,60.00 L 191.00,59.00 L 191.00,59.00 L 192.00,58.00 L 193.00,58.00 L 194.00,58.00 L 195.00,58.00 L 196.00,58.00 L 197.00,59.00 L 197.00,59.00 L 198.00,60.00 L 198.00,61.00 L 198.00,61.00 L 199.00,62.00 L 199.00,63.00 L 199.00,63.00 L 200.00,64.00 L 200.00,65.00 L 200.00,65.00 L 201.00,66.00 L 201.00,67.00 L 201.00,68.00 L 201.00,68.00 L 202.00,69.00 L 202.00,70.00 L 202.00,71.00 L 202.00,72.00 L 201.00,73.00 Z" fill="#004098" stroke="none" /><path d="M 212.00,73.00 L 211.00,73.00 L 210.00,73.00 L 209.00,72.00 L 209.00,72.00 L 208.00,71.00 L 208.00,70.00 L 208.00,69.00 L 208.00,68.00 L 208.00,67.00 L 208.00,66.00 L 208.00,65.00 L 208.00,64.00 L 208.00,63.00 L 208.00,63.00 L 207.00,63.00 L 206.00,63.00 L 205.00,63.00 L 204.00,63.00 L 203.00,62.00 L 203.00,62.00 L 202.00,61.00 L 202.00,60.00 L 203.00,59.00 L 203.00,59.00 L 204.00,58.00 L 205.00,58.00 L 206.00,58.00 L 207.00,58.00 L 208.00,58.00 L 209.00,58.00 L 210.00,58.00 L 211.00,58.00 L 212.00,58.00 L 213.00,58.00 L 214.00,58.00 L 215.00,58.00 L 216.00,58.00 L 217.00,58.00 L 218.00,59.00 L 218.00,59.00 L 219.00,60.00 L 219.00,60.00 L 220.00,61.00 L 219.00,62.00 L 219.00,62.00 L 218.00,63.00 L 217.00,63.00 L 216.00,63.00 L 215.00,63.00 L 214.00,63.00 L 213.00,63.00 L 213.00,63.00 L 213.00,64.00 L 213.00,65.00 L 213.00,66.00 L 213.00,67.00 L 213.00,68.00 L 213.00,69.00 L 213.00,70.00 L 213.00,71.00 L 213.00,72.00 L 212.00,73.00 Z" fill="#004098" stroke="none" /><path d="M 231.00,74.00 L 230.00,74.00 L 229.00,74.00 L 228.00,74.00 L 227.00,74.00 L 226.00,73.00 L 226.00,73.00 L 225.00,73.00 L 224.00,72.00 L 224.00,72.00 L 223.00,72.00 L 222.00,71.00 L 222.00,71.00 L 221.00,70.00 L 221.00,69.00 L 221.00,68.00 L 221.00,67.00 L 221.00,66.00 L 221.00,65.00 L 221.00,64.00 L 221.00,63.00 L 221.00,62.00 L 221.00,61.00 L 221.00,60.00 L 222.00,59.00 L 222.00,59.00 L 223.00,58.00 L 224.00,58.00 L 225.00,59.00 L 225.00,59.00 L 226.00,60.00 L 226.00,61.00 L 226.00,62.00 L 226.00,63.00 L 226.00,64.00 L 226.00,65.00 L 226.00,66.00 L 226.00,67.00 L 226.00,68.00 L 226.00,68.00 L 227.00,69.00 L 227.00,69.00 L 228.00,69.00 L 229.00,69.00 L 230.00,69.00 L 231.00,69.00 L 231.00,69.00 L 232.00,68.00 L 232.00,68.00 L 232.00,67.00 L 232.00,66.00 L 232.00,65.00 L 232.00,64.00 L 232.00,63.00 L 232.00,62.00 L 232.00,61.00 L 232.00,60.00 L 233.00,59.00 L 233.00,59.00 L 234.00,58.00 L 235.00,58.00 L 236.00,59.00 L 236.00,59.00 L 237.00,60.00 L 237.00,61.00 L 237.00,62.00 L 237.00,63.00 L 237.00,64.00 L 237.00,65.00 L 237.00,66.00 L 237.00,67.00 L 237.00,68.00 L 237.00,69.00 L 237.00,70.00 L 236.00,71.00 L 236.00,71.00 L 235.00,72.00 L 235.00,72.00 L 234.00,73.00 L 233.00,73.00 L 232.00,73.00 L 232.00,73.00 L 231.00,74.00 Z" fill="#004098" stroke="none" /></svg>