<?xml version="1.0" encoding="utf-8" ?>
<svg baseProfile="tiny" height="100%" version="1.2" width="100%" xmlns="http://www.w3.org/2000/svg" xmlns:ev="http://www.w3.org/2001/xml-events" xmlns:xlink="http://www.w3.org/1999/xlink"><defs /><path d="M 102.00,48.00 L 103.00,47.00 L 104.00,47.00 L 105.00,47.00 L 105.00,47.00 L 106.00,46.00 L 107.00,46.00 L 107.00,46.00 L 108.00,45.00 L 108.00,45.00 L 109.00,44.00 L 109.00,44.00 L 110.00,43.00 L 110.00,43.00 L 111.00,42.00 L 111.00,42.00 L 112.00,41.00 L 112.00,41.00 L 113.00,40.00 L 113.00,40.00 L 113.00,39.00 L 114.00,38.00 L 114.00,38.00 L 114.00,37.00 L 115.00,36.00 L 115.00,36.00 L 115.00,35.00 L 115.00,34.00 L 116.00,33.00 L 116.00,33.00 L 116.00,32.00 L 116.00,31.00 L 116.00,30.00 L 116.00,29.00 L 117.00,28.00 L 117.00,28.00 L 117.00,27.00 L 117.00,26.00 L 117.00,25.00 L 117.00,24.00 L 117.00,23.00 L 117.00,22.00 L 117.00,21.00 L 118.00,20.00 L 118.00,20.00 L 118.00,19.00 L 118.00,18.00 L 118.00,17.00 L 118.00,16.00 L 118.00,15.00 L 118.00,14.00 L 118.00,13.00 L 118.00,13.00 L 117.00,12.00 L 117.00,12.00 L 116.00,11.00 L 116.00,11.00 L 115.00,11.00 L 114.00,11.00 L 113.00,11.00 L 112.00,11.00 L 111.00,11.00 L 110.00,11.00 L 109.00,11.00 L 108.00,11.00 L 107.00,11.00 L 106.00,11.00 L 105.00,11.00 L 104.00,11.00 L 103.00,11.00 L 102.00,11.00 L 101.00,11.00 L 100.00,11.00 L 99.00,10.00 L 99.00,9.00 L 99.00,9.00 L 98.00,8.00 L 98.00,8.00 L 97.00,7.00 L 97.00,7.00 L 96.00,6.00 L 96.00,6.00 L 95.00,6.00 L 94.00,6.00 L 93.00,6.00 L 93.00,6.00 L 92.00,7.00 L 91.00,7.00 L 91.00,7.00 L 91.00,8.00 L 90.00,9.00 L 90.00,9.00 L 90.00,10.00 L 89.00,11.00 L 88.00,11.00 L 87.00,11.00 L 86.00,11.00 L 85.00,11.00 L 84.00,11.00 L 83.00,11.00 L 82.00,11.00 L 81.00,11.00 L 80.00,11.00 L 79.00,11.00 L 78.00,11.00 L 77.00,11.00 L 76.00,11.00 L 75.00,11.00 L 74.00,11.00 L 74.00,11.00 L 73.00,12.00 L 73.00,12.00 L 72.00,13.00 L 72.00,13.00 L 71.00,14.00 L 71.00,14.00 L 71.00,15.00 L 71.00,16.00 L 71.00,17.00 L 71.00,18.00 L 71.00,19.00 L 71.00,20.00 L 71.00,21.00 L 71.00,22.00 L 71.00,23.00 L 71.00,24.00 L 71.00,25.00 L 71.00,26.00 L 71.00,27.00 L 71.00,28.00 L 71.00,29.00 L 71.00,30.00 L 71.00,31.00 L 71.00,31.00 L 72.00,32.00 L 72.00,32.00 L 73.00,33.00 L 73.00,33.00 L 74.00,33.00 L 75.00,33.00 L 76.00,33.00 L 77.00,33.00 L 77.00,33.00 L 78.00,32.00 L 79.00,32.00 L 79.00,32.00 L 79.00,31.00 L 80.00,30.00 L 80.00,30.00 L 80.00,29.00 L 80.00,28.00 L 80.00,27.00 L 80.00,26.00 L 80.00,25.00 L 80.00,24.00 L 80.00,23.00 L 80.00,22.00 L 80.00,21.00 L 81.00,20.00 L 82.00,20.00 L 83.00,20.00 L 84.00,20.00 L 85.00,20.00 L 86.00,20.00 L 87.00,20.00 L 88.00,20.00 L 89.00,20.00 L 90.00,20.00 L 91.00,20.00 L 92.00,20.00 L 93.00,20.00 L 94.00,20.00 L 95.00,20.00 L 96.00,20.00 L 97.00,20.00 L 98.00,20.00 L 99.00,20.00 L 100.00,20.00 L 101.00,20.00 L 102.00,20.00 L 103.00,20.00 L 104.00,20.00 L 105.00,20.00 L 106.00,20.00 L 107.00,20.00 L 108.00,21.00 L 108.00,22.00 L 108.00,23.00 L 108.00,24.00 L 108.00,25.00 L 108.00,26.00 L 108.00,27.00 L 108.00,28.00 L 107.00,29.00 L 107.00,29.00 L 107.00,30.00 L 107.00,31.00 L 107.00,32.00 L 106.00,33.00 L 106.00,33.00 L 106.00,34.00 L 105.00,35.00 L 105.00,35.00 L 104.00,36.00 L 104.00,36.00 L 103.00,37.00 L 103.00,37.00 L 102.00,38.00 L 101.00,38.00 L 101.00,38.00 L 100.00,39.00 L 99.00,39.00 L 98.00,39.00 L 97.00,39.00 L 96.00,39.00 L 95.00,39.00 L 94.00,39.00 L 93.00,39.00 L 93.00,39.00 L 92.00,40.00 L 92.00,40.00 L 91.00,41.00 L 91.00,41.00 L 91.00,42.00 L 90.00,43.00 L 90.00,43.00 L 90.00,44.00 L 90.00,44.00 L 91.00,45.00 L 91.00,46.00 L 91.00,46.00 L 92.00,47.00 L 92.00,47.00 L 93.00,47.00 L 94.00,48.00 L 94.00,48.00 L 95.00,48.00 L 96.00,48.00 L 97.00,48.00 L 98.00,48.00 L 99.00,48.00 L 100.00,48.00 L 101.00,48.00 L 102.00,48.00 L 102.00,48.00 Z" fill="white" stroke="none" /><path d="M 214.00,48.00 L 215.00,47.00 L 216.00,47.00 L 216.00,47.00 L 217.00,46.00 L 218.00,46.00 L 218.00,46.00 L 219.00,45.00 L 219.00,45.00 L 220.00,44.00 L 220.00,44.00 L 221.00,43.00 L 221.00,43.00 L 222.00,42.00 L 222.00,42.00 L 222.00,41.00 L 223.00,40.00 L 223.00,40.00 L 224.00,39.00 L 224.00,39.00 L 224.00,38.00 L 225.00,37.00 L 225.00,37.00 L 225.00,36.00 L 225.00,35.00 L 226.00,34.00 L 226.00,34.00 L 226.00,33.00 L 226.00,32.00 L 226.00,31.00 L 227.00,30.00 L 227.00,30.00 L 227.00,29.00 L 227.00,28.00 L 227.00,27.00 L 227.00,26.00 L 227.00,25.00 L 227.00,24.00 L 228.00,23.00 L 228.00,23.00 L 228.00,22.00 L 228.00,21.00 L 228.00,20.00 L 228.00,19.00 L 228.00,18.00 L 228.00,17.00 L 228.00,16.00 L 228.00,15.00 L 228.00,14.00 L 228.00,13.00 L 228.00,13.00 L 227.00,12.00 L 227.00,12.00 L 226.00,11.00 L 226.00,11.00 L 225.00,11.00 L 224.00,11.00 L 223.00,11.00 L 222.00,11.00 L 221.00,11.00 L 220.00,11.00 L 219.00,11.00 L 218.00,11.00 L 217.00,11.00 L 216.00,11.00 L 215.00,11.00 L 214.00,11.00 L 213.00,11.00 L 212.00,11.00 L 211.00,11.00 L 210.00,11.00 L 209.00,11.00 L 208.00,11.00 L 207.00,11.00 L 206.00,10.00 L 206.00,9.00 L 206.00,9.00 L 205.00,8.00 L 205.00,7.00 L 205.00,7.00 L 204.00,7.00 L 203.00,6.00 L 203.00,6.00 L 202.00,6.00 L 201.00,6.00 L 201.00,6.00 L 200.00,7.00 L 199.00,7.00 L 199.00,7.00 L 198.00,8.00 L 198.00,8.00 L 197.00,9.00 L 197.00,9.00 L 197.00,10.00 L 196.00,11.00 L 195.00,11.00 L 194.00,11.00 L 193.00,11.00 L 192.00,11.00 L 191.00,11.00 L 190.00,11.00 L 189.00,11.00 L 188.00,11.00 L 187.00,11.00 L 186.00,11.00 L 185.00,11.00 L 185.00,11.00 L 184.00,12.00 L 184.00,12.00 L 183.00,13.00 L 183.00,13.00 L 183.00,14.00 L 182.00,15.00 L 182.00,15.00 L 182.00,16.00 L 182.00,16.00 L 183.00,17.00 L 183.00,18.00 L 183.00,18.00 L 184.00,19.00 L 184.00,19.00 L 185.00,20.00 L 185.00,20.00 L 186.00,20.00 L 187.00,20.00 L 188.00,20.00 L 189.00,20.00 L 190.00,20.00 L 191.00,20.00 L 192.00,20.00 L 193.00,20.00 L 194.00,20.00 L 195.00,21.00 L 195.00,22.00 L 195.00,23.00 L 195.00,24.00 L 195.00,25.00 L 195.00,26.00 L 194.00,27.00 L 194.00,27.00 L 194.00,28.00 L 194.00,29.00 L 194.00,30.00 L 194.00,31.00 L 193.00,32.00 L 193.00,32.00 L 193.00,33.00 L 193.00,34.00 L 192.00,35.00 L 192.00,35.00 L 191.00,36.00 L 191.00,36.00 L 190.00,37.00 L 190.00,37.00 L 189.00,38.00 L 188.00,38.00 L 187.00,38.00 L 187.00,38.00 L 186.00,39.00 L 185.00,39.00 L 184.00,39.00 L 183.00,39.00 L 183.00,39.00 L 182.00,40.00 L 182.00,40.00 L 181.00,41.00 L 181.00,41.00 L 181.00,42.00 L 181.00,43.00 L 181.00,44.00 L 181.00,45.00 L 181.00,46.00 L 181.00,46.00 L 182.00,47.00 L 182.00,47.00 L 183.00,47.00 L 184.00,48.00 L 184.00,48.00 L 185.00,48.00 L 186.00,48.00 L 187.00,48.00 L 188.00,48.00 L 189.00,48.00 L 189.00,48.00 L 190.00,47.00 L 191.00,47.00 L 192.00,47.00 L 192.00,47.00 L 193.00,46.00 L 194.00,46.00 L 194.00,46.00 L 195.00,45.00 L 195.00,45.00 L 196.00,44.00 L 196.00,44.00 L 197.00,43.00 L 197.00,43.00 L 198.00,42.00 L 198.00,42.00 L 199.00,41.00 L 199.00,41.00 L 199.00,40.00 L 200.00,39.00 L 200.00,39.00 L 201.00,38.00 L 201.00,38.00 L 201.00,37.00 L 201.00,36.00 L 202.00,35.00 L 202.00,35.00 L 202.00,34.00 L 202.00,33.00 L 203.00,32.00 L 203.00,32.00 L 203.00,31.00 L 203.00,30.00 L 203.00,29.00 L 203.00,28.00 L 204.00,27.00 L 204.00,27.00 L 204.00,26.00 L 204.00,25.00 L 204.00,24.00 L 204.00,23.00 L 204.00,22.00 L 204.00,21.00 L 205.00,20.00 L 206.00,20.00 L 207.00,20.00 L 208.00,20.00 L 209.00,20.00 L 210.00,20.00 L 211.00,20.00 L 212.00,20.00 L 213.00,20.00 L 214.00,20.00 L 215.00,20.00 L 216.00,20.00 L 217.00,20.00 L 218.00,21.00 L 218.00,22.00 L 218.00,23.00 L 218.00,24.00 L 218.00,25.00 L 218.00,26.00 L 218.00,27.00 L 218.00,28.00 L 218.00,29.00 L 217.00,30.00 L 217.00,30.00 L 217.00,31.00 L 217.00,32.00 L 217.00,33.00 L 216.00,34.00 L 216.00,34.00 L 215.00,35.00 L 215.00,35.00 L 215.00,36.00 L 214.00,37.00 L 214.00,37.00 L 213.00,38.00 L 212.00,38.00 L 212.00,38.00 L 211.00,39.00 L 210.00,39.00 L 209.00,39.00 L 208.00,39.00 L 207.00,39.00 L 206.00,39.00 L 206.00,39.00 L 205.00,40.00 L 205.00,40.00 L 205.00,41.00 L 204.00,42.00 L 204.00,42.00 L 204.00,43.00 L 204.00,44.00 L 204.00,45.00 L 204.00,45.00 L 205.00,46.00 L 205.00,46.00 L 206.00,47.00 L 206.00,47.00 L 207.00,48.00 L 207.00,48.00 L 208.00,48.00 L 209.00,48.00 L 210.00,48.00 L 211.00,48.00 L 212.00,48.00 L 213.00,48.00 L 214.00,48.00 L 214.00,48.00 Z" fill="white" stroke="none" /><path d="M 143.00,48.00 L 144.00,47.00 L 145.00,47.00 L 146.00,47.00 L 146.00,47.00 L 147.00,46.00 L 148.00,46.00 L 148.00,46.00 L 149.00,45.00 L 149.00,45.00 L 150.00,44.00 L 150.00,44.00 L 151.00,43.00 L 151.00,43.00 L 152.00,42.00 L 152.00,42.00 L 153.00,41.00 L 153.00,41.00 L 153.00,40.00 L 154.00,39.00 L 154.00,39.00 L 154.00,38.00 L 155.00,37.00 L 155.00,37.00 L 155.00,36.00 L 155.00,35.00 L 155.00,34.00 L 155.00,33.00 L 156.00,32.00 L 157.00,32.00 L 158.00,32.00 L 159.00,32.00 L 160.00,32.00 L 161.00,32.00 L 162.00,32.00 L 163.00,32.00 L 164.00,32.00 L 165.00,32.00 L 166.00,32.00 L 167.00,32.00 L 168.00,32.00 L 169.00,32.00 L 169.00,32.00 L 170.00,31.00 L 171.00,31.00 L 171.00,31.00 L 171.00,30.00 L 172.00,29.00 L 172.00,29.00 L 172.00,28.00 L 172.00,27.00 L 172.00,26.00 L 172.00,25.00 L 172.00,25.00 L 171.00,24.00 L 171.00,24.00 L 170.00,23.00 L 170.00,23.00 L 169.00,23.00 L 168.00,23.00 L 167.00,23.00 L 166.00,23.00 L 165.00,23.00 L 164.00,23.00 L 163.00,23.00 L 162.00,23.00 L 161.00,23.00 L 160.00,23.00 L 159.00,23.00 L 158.00,23.00 L 157.00,22.00 L 157.00,21.00 L 157.00,20.00 L 157.00,19.00 L 158.00,18.00 L 158.00,18.00 L 158.00,17.00 L 159.00,16.00 L 160.00,16.00 L 161.00,16.00 L 162.00,16.00 L 163.00,16.00 L 164.00,16.00 L 165.00,16.00 L 166.00,16.00 L 167.00,16.00 L 168.00,16.00 L 169.00,16.00 L 170.00,16.00 L 170.00,16.00 L 171.00,15.00 L 171.00,15.00 L 171.00,14.00 L 172.00,13.00 L 172.00,13.00 L 172.00,12.00 L 172.00,11.00 L 172.00,10.00 L 172.00,10.00 L 171.00,9.00 L 171.00,9.00 L 170.00,8.00 L 170.00,8.00 L 169.00,8.00 L 168.00,7.00 L 168.00,7.00 L 167.00,7.00 L 166.00,7.00 L 165.00,7.00 L 164.00,7.00 L 163.00,7.00 L 162.00,7.00 L 161.00,7.00 L 160.00,7.00 L 159.00,7.00 L 158.00,7.00 L 157.00,7.00 L 156.00,7.00 L 155.00,7.00 L 154.00,7.00 L 153.00,7.00 L 152.00,7.00 L 151.00,7.00 L 150.00,7.00 L 149.00,7.00 L 148.00,7.00 L 147.00,7.00 L 146.00,7.00 L 145.00,7.00 L 144.00,7.00 L 143.00,7.00 L 142.00,7.00 L 141.00,7.00 L 140.00,7.00 L 139.00,7.00 L 138.00,7.00 L 137.00,7.00 L 136.00,7.00 L 135.00,7.00 L 134.00,7.00 L 133.00,7.00 L 132.00,7.00 L 131.00,7.00 L 131.00,7.00 L 130.00,8.00 L 129.00,8.00 L 129.00,8.00 L 129.00,9.00 L 128.00,10.00 L 128.00,10.00 L 128.00,11.00 L 128.00,12.00 L 128.00,13.00 L 128.00,14.00 L 128.00,14.00 L 129.00,15.00 L 129.00,15.00 L 130.00,16.00 L 130.00,16.00 L 131.00,16.00 L 132.00,16.00 L 133.00,16.00 L 134.00,16.00 L 135.00,16.00 L 136.00,16.00 L 137.00,16.00 L 138.00,16.00 L 139.00,16.00 L 140.00,16.00 L 141.00,16.00 L 142.00,16.00 L 143.00,16.00 L 144.00,16.00 L 145.00,16.00 L 146.00,16.00 L 147.00,16.00 L 148.00,16.00 L 149.00,17.00 L 148.00,18.00 L 148.00,18.00 L 148.00,19.00 L 148.00,20.00 L 148.00,21.00 L 148.00,22.00 L 147.00,23.00 L 146.00,23.00 L 145.00,23.00 L 144.00,23.00 L 143.00,23.00 L 142.00,23.00 L 141.00,23.00 L 140.00,23.00 L 139.00,23.00 L 138.00,23.00 L 137.00,23.00 L 136.00,23.00 L 135.00,23.00 L 134.00,23.00 L 133.00,23.00 L 132.00,23.00 L 131.00,23.00 L 130.00,23.00 L 130.00,23.00 L 129.00,24.00 L 129.00,24.00 L 128.00,25.00 L 128.00,25.00 L 128.00,26.00 L 128.00,27.00 L 128.00,28.00 L 128.00,29.00 L 128.00,29.00 L 129.00,30.00 L 129.00,31.00 L 129.00,31.00 L 130.00,31.00 L 131.00,32.00 L 131.00,32.00 L 132.00,32.00 L 133.00,32.00 L 134.00,32.00 L 135.00,32.00 L 136.00,32.00 L 137.00,32.00 L 138.00,32.00 L 139.00,32.00 L 140.00,32.00 L 141.00,32.00 L 142.00,32.00 L 143.00,32.00 L 144.00,32.00 L 145.00,32.00 L 146.00,33.00 L 146.00,34.00 L 145.00,35.00 L 145.00,35.00 L 145.00,36.00 L 144.00,37.00 L 144.00,37.00 L 143.00,38.00 L 142.00,38.00 L 142.00,38.00 L 141.00,39.00 L 140.00,39.00 L 139.00,39.00 L 138.00,39.00 L 137.00,39.00 L 136.00,39.00 L 135.00,39.00 L 134.00,39.00 L 133.00,39.00 L 132.00,39.00 L 131.00,39.00 L 130.00,39.00 L 130.00,39.00 L 129.00,40.00 L 129.00,40.00 L 129.00,41.00 L 128.00,42.00 L 128.00,42.00 L 128.00,43.00 L 128.00,44.00 L 128.00,45.00 L 128.00,45.00 L 129.00,46.00 L 129.00,46.00 L 130.00,47.00 L 130.00,47.00 L 131.00,47.00 L 132.00,48.00 L 132.00,48.00 L 133.00,48.00 L 134.00,48.00 L 135.00,48.00 L 136.00,48.00 L 137.00,48.00 L 138.00,48.00 L 139.00,48.00 L 140.00,48.00 L 141.00,48.00 L 142.00,48.00 L 143.00,48.00 L 143.00,48.00 Z" fill="white" stroke="none" /><path d="M 10.00,25.00 L 11.00,24.00 L 12.00,24.00 L 12.00,24.00 L 13.00,23.00 L 14.00,23.00 L 14.00,23.00 L 15.00,22.00 L 15.00,22.00 L 16.00,21.00 L 17.00,21.00 L 17.00,21.00 L 18.00,20.00 L 19.00,20.00 L 19.00,20.00 L 20.00,19.00 L 21.00,19.00 L 21.00,19.00 L 22.00,18.00 L 22.00,18.00 L 23.00,17.00 L 24.00,17.00 L 24.00,17.00 L 25.00,16.00 L 26.00,16.00 L 26.00,16.00 L 27.00,15.00 L 28.00,15.00 L 28.00,15.00 L 29.00,14.00 L 30.00,14.00 L 30.00,14.00 L 31.00,13.00 L 31.00,13.00 L 31.00,12.00 L 31.00,11.00 L 31.00,10.00 L 31.00,9.00 L 31.00,9.00 L 30.00,8.00 L 30.00,8.00 L 29.00,8.00 L 28.00,8.00 L 27.00,8.00 L 27.00,8.00 L 26.00,9.00 L 25.00,9.00 L 25.00,9.00 L 24.00,10.00 L 23.00,10.00 L 23.00,10.00 L 22.00,11.00 L 22.00,11.00 L 21.00,12.00 L 20.00,12.00 L 20.00,12.00 L 19.00,13.00 L 18.00,13.00 L 18.00,13.00 L 17.00,14.00 L 16.00,14.00 L 16.00,14.00 L 15.00,15.00 L 15.00,15.00 L 14.00,16.00 L 13.00,16.00 L 13.00,16.00 L 12.00,17.00 L 11.00,17.00 L 11.00,17.00 L 10.00,18.00 L 9.00,18.00 L 9.00,18.00 L 8.00,19.00 L 7.00,19.00 L 7.00,19.00 L 6.00,20.00 L 6.00,20.00 L 6.00,21.00 L 6.00,22.00 L 6.00,23.00 L 6.00,24.00 L 6.00,24.00 L 7.00,24.00 L 8.00,25.00 L 8.00,25.00 L 9.00,25.00 L 10.00,25.00 L 10.00,25.00 Z" fill="white" stroke="none" /><path d="M 57.00,25.00 L 58.00,24.00 L 58.00,24.00 L 58.00,23.00 L 58.00,22.00 L 58.00,21.00 L 58.00,20.00 L 58.00,20.00 L 57.00,19.00 L 57.00,19.00 L 56.00,19.00 L 55.00,18.00 L 55.00,18.00 L 54.00,18.00 L 53.00,17.00 L 53.00,17.00 L 52.00,17.00 L 51.00,16.00 L 51.00,16.00 L 50.00,15.00 L 50.00,15.00 L 49.00,15.00 L 48.00,14.00 L 48.00,14.00 L 47.00,14.00 L 46.00,13.00 L 46.00,13.00 L 45.00,13.00 L 44.00,12.00 L 44.00,12.00 L 43.00,11.00 L 43.00,11.00 L 42.00,11.00 L 41.00,10.00 L 41.00,10.00 L 40.00,10.00 L 39.00,9.00 L 39.00,9.00 L 38.00,9.00 L 37.00,8.00 L 37.00,8.00 L 36.00,8.00 L 35.00,8.00 L 34.00,8.00 L 34.00,8.00 L 33.00,9.00 L 33.00,9.00 L 33.00,10.00 L 33.00,11.00 L 33.00,12.00 L 33.00,12.00 L 34.00,13.00 L 34.00,13.00 L 35.00,14.00 L 35.00,14.00 L 36.00,14.00 L 37.00,15.00 L 37.00,15.00 L 38.00,15.00 L 39.00,16.00 L 39.00,16.00 L 40.00,17.00 L 40.00,17.00 L 41.00,17.00 L 42.00,18.00 L 42.00,18.00 L 43.00,18.00 L 44.00,19.00 L 44.00,19.00 L 45.00,19.00 L 46.00,20.00 L 46.00,20.00 L 47.00,21.00 L 47.00,21.00 L 48.00,21.00 L 49.00,22.00 L 49.00,22.00 L 50.00,22.00 L 51.00,23.00 L 51.00,23.00 L 52.00,23.00 L 53.00,24.00 L 53.00,24.00 L 54.00,24.00 L 55.00,25.00 L 55.00,25.00 L 56.00,25.00 L 57.00,25.00 L 57.00,25.00 Z" fill="white" stroke="none" /><path d="M 246.00,29.00 L 247.00,28.00 L 247.00,28.00 L 247.00,27.00 L 248.00,26.00 L 248.00,26.00 L 248.00,25.00 L 248.00,24.00 L 248.00,23.00 L 248.00,22.00 L 248.00,21.00 L 248.00,20.00 L 248.00,19.00 L 248.00,18.00 L 248.00,17.00 L 248.00,16.00 L 248.00,15.00 L 248.00,14.00 L 248.00,13.00 L 248.00,12.00 L 248.00,12.00 L 247.00,11.00 L 247.00,10.00 L 247.00,10.00 L 246.00,9.00 L 246.00,9.00 L 245.00,8.00 L 245.00,8.00 L 244.00,8.00 L 243.00,8.00 L 242.00,8.00 L 241.00,8.00 L 241.00,8.00 L 240.00,9.00 L 240.00,9.00 L 239.00,10.00 L 239.00,10.00 L 239.00,11.00 L 239.00,12.00 L 239.00,13.00 L 239.00,14.00 L 239.00,15.00 L 239.00,16.00 L 239.00,17.00 L 239.00,18.00 L 239.00,19.00 L 239.00,20.00 L 239.00,21.00 L 239.00,22.00 L 239.00,23.00 L 239.00,24.00 L 239.00,25.00 L 239.00,26.00 L 239.00,27.00 L 239.00,28.00 L 239.00,28.00 L 240.00,28.00 L 241.00,29.00 L 241.00,29.00 L 242.00,29.00 L 243.00,29.00 L 244.00,29.00 L 245.00,29.00 L 246.00,29.00 L 246.00,29.00 Z" fill="white" stroke="none" /><path d="M 259.00,29.00 L 260.00,28.00 L 260.00,28.00 L 261.00,27.00 L 261.00,27.00 L 261.00,26.00 L 261.00,25.00 L 261.00,24.00 L 261.00,23.00 L 261.00,22.00 L 261.00,21.00 L 261.00,20.00 L 261.00,19.00 L 261.00,18.00 L 261.00,17.00 L 261.00,16.00 L 261.00,15.00 L 261.00,14.00 L 261.00,13.00 L 261.00,12.00 L 261.00,11.00 L 261.00,10.00 L 261.00,10.00 L 260.00,9.00 L 260.00,9.00 L 259.00,8.00 L 259.00,8.00 L 258.00,8.00 L 257.00,8.00 L 256.00,8.00 L 255.00,8.00 L 255.00,8.00 L 254.00,9.00 L 254.00,9.00 L 253.00,10.00 L 253.00,10.00 L 252.00,11.00 L 252.00,11.00 L 252.00,12.00 L 252.00,13.00 L 252.00,14.00 L 252.00,15.00 L 252.00,16.00 L 252.00,17.00 L 252.00,18.00 L 252.00,19.00 L 252.00,20.00 L 252.00,21.00 L 252.00,22.00 L 252.00,23.00 L 252.00,24.00 L 252.00,25.00 L 252.00,26.00 L 252.00,26.00 L 253.00,27.00 L 253.00,28.00 L 253.00,28.00 L 254.00,29.00 L 254.00,29.00 L 255.00,29.00 L 256.00,29.00 L 257.00,29.00 L 258.00,29.00 L 259.00,29.00 L 259.00,29.00 Z" fill="white" stroke="none" /><path d="M 262.00,48.00 L 263.00,47.00 L 264.00,47.00 L 265.00,47.00 L 266.00,47.00 L 266.00,47.00 L 267.00,46.00 L 267.00,46.00 L 268.00,45.00 L 269.00,45.00 L 269.00,45.00 L 270.00,44.00 L 270.00,44.00 L 271.00,43.00 L 271.00,43.00 L 272.00,42.00 L 272.00,42.00 L 272.00,41.00 L 273.00,40.00 L 273.00,40.00 L 274.00,39.00 L 274.00,39.00 L 274.00,38.00 L 275.00,37.00 L 275.00,37.00 L 275.00,36.00 L 276.00,35.00 L 276.00,35.00 L 276.00,34.00 L 277.00,33.00 L 277.00,33.00 L 277.00,32.00 L 277.00,31.00 L 278.00,30.00 L 278.00,30.00 L 278.00,29.00 L 278.00,28.00 L 279.00,27.00 L 279.00,27.00 L 279.00,26.00 L 279.00,25.00 L 280.00,24.00 L 280.00,24.00 L 280.00,23.00 L 280.00,22.00 L 280.00,21.00 L 281.00,20.00 L 281.00,20.00 L 281.00,19.00 L 281.00,18.00 L 282.00,17.00 L 282.00,17.00 L 282.00,16.00 L 282.00,15.00 L 283.00,14.00 L 283.00,14.00 L 283.00,13.00 L 283.00,12.00 L 283.00,11.00 L 283.00,10.00 L 283.00,10.00 L 282.00,9.00 L 282.00,9.00 L 281.00,8.00 L 281.00,8.00 L 280.00,8.00 L 279.00,8.00 L 278.00,8.00 L 277.00,8.00 L 276.00,8.00 L 276.00,8.00 L 275.00,9.00 L 275.00,9.00 L 274.00,10.00 L 274.00,10.00 L 274.00,11.00 L 274.00,12.00 L 273.00,13.00 L 273.00,13.00 L 273.00,14.00 L 273.00,15.00 L 273.00,16.00 L 272.00,17.00 L 272.00,17.00 L 272.00,18.00 L 272.00,19.00 L 271.00,20.00 L 271.00,20.00 L 271.00,21.00 L 271.00,22.00 L 270.00,23.00 L 270.00,23.00 L 270.00,24.00 L 270.00,25.00 L 270.00,26.00 L 269.00,27.00 L 269.00,27.00 L 269.00,28.00 L 269.00,29.00 L 268.00,30.00 L 268.00,30.00 L 268.00,31.00 L 267.00,32.00 L 267.00,32.00 L 267.00,33.00 L 266.00,34.00 L 266.00,34.00 L 265.00,35.00 L 265.00,35.00 L 264.00,36.00 L 264.00,36.00 L 263.00,37.00 L 262.00,37.00 L 262.00,37.00 L 261.00,38.00 L 260.00,38.00 L 260.00,38.00 L 259.00,39.00 L 258.00,39.00 L 257.00,39.00 L 256.00,39.00 L 255.00,39.00 L 254.00,39.00 L 254.00,39.00 L 253.00,40.00 L 253.00,40.00 L 253.00,41.00 L 252.00,42.00 L 252.00,42.00 L 252.00,43.00 L 252.00,44.00 L 252.00,45.00 L 252.00,45.00 L 253.00,46.00 L 253.00,46.00 L 254.00,47.00 L 254.00,47.00 L 255.00,47.00 L 256.00,48.00 L 256.00,48.00 L 257.00,48.00 L 258.00,48.00 L 259.00,48.00 L 260.00,48.00 L 261.00,48.00 L 262.00,48.00 L 262.00,48.00 Z" fill="white" stroke="none" /><path d="M 11.00,35.00 L 12.00,34.00 L 13.00,34.00 L 13.00,34.00 L 14.00,33.00 L 15.00,33.00 L 15.00,33.00 L 16.00,32.00 L 16.00,32.00 L 17.00,31.00 L 18.00,31.00 L 18.00,31.00 L 19.00,30.00 L 20.00,30.00 L 20.00,30.00 L 21.00,29.00 L 22.00,29.00 L 22.00,29.00 L 23.00,28.00 L 23.00,28.00 L 24.00,27.00 L 25.00,27.00 L 25.00,27.00 L 26.00,26.00 L 27.00,26.00 L 27.00,26.00 L 28.00,25.00 L 29.00,25.00 L 29.00,25.00 L 30.00,24.00 L 30.00,24.00 L 31.00,23.00 L 31.00,23.00 L 31.00,22.00 L 31.00,21.00 L 31.00,20.00 L 31.00,20.00 L 30.00,19.00 L 30.00,19.00 L 29.00,19.00 L 28.00,18.00 L 28.00,18.00 L 28.00,18.00 L 27.00,19.00 L 26.00,19.00 L 26.00,19.00 L 25.00,20.00 L 24.00,20.00 L 24.00,20.00 L 23.00,21.00 L 23.00,21.00 L 22.00,22.00 L 21.00,22.00 L 21.00,22.00 L 20.00,23.00 L 19.00,23.00 L 19.00,23.00 L 18.00,24.00 L 17.00,24.00 L 17.00,24.00 L 16.00,25.00 L 15.00,25.00 L 15.00,25.00 L 14.00,26.00 L 14.00,26.00 L 13.00,27.00 L 12.00,27.00 L 12.00,27.00 L 11.00,28.00 L 10.00,28.00 L 10.00,28.00 L 9.00,29.00 L 8.00,29.00 L 8.00,29.00 L 7.00,30.00 L 7.00,30.00 L 6.00,31.00 L 6.00,31.00 L 6.00,32.00 L 6.00,33.00 L 6.00,34.00 L 6.00,34.00 L 7.00,35.00 L 7.00,35.00 L 8.00,35.00 L 9.00,35.00 L 10.00,35.00 L 11.00,35.00 L 11.00,35.00 Z" fill="white" stroke="none" /><path d="M 57.00,35.00 L 58.00,34.00 L 58.00,34.00 L 58.00,33.00 L 58.00,32.00 L 58.00,31.00 L 58.00,31.00 L 57.00,30.00 L 57.00,30.00 L 56.00,29.00 L 56.00,29.00 L 55.00,29.00 L 54.00,28.00 L 54.00,28.00 L 53.00,28.00 L 52.00,27.00 L 52.00,27.00 L 51.00,27.00 L 50.00,26.00 L 50.00,26.00 L 49.00,25.00 L 49.00,25.00 L 48.00,25.00 L 47.00,24.00 L 47.00,24.00 L 46.00,24.00 L 45.00,23.00 L 45.00,23.00 L 44.00,23.00 L 43.00,22.00 L 43.00,22.00 L 42.00,21.00 L 42.00,21.00 L 41.00,21.00 L 40.00,20.00 L 40.00,20.00 L 39.00,20.00 L 38.00,19.00 L 38.00,19.00 L 37.00,19.00 L 36.00,19.00 L 35.00,19.00 L 34.00,19.00 L 34.00,19.00 L 33.00,20.00 L 33.00,20.00 L 33.00,21.00 L 33.00,22.00 L 33.00,23.00 L 33.00,23.00 L 34.00,24.00 L 34.00,24.00 L 35.00,24.00 L 36.00,25.00 L 36.00,25.00 L 37.00,25.00 L 38.00,26.00 L 38.00,26.00 L 39.00,27.00 L 39.00,27.00 L 40.00,27.00 L 41.00,28.00 L 41.00,28.00 L 42.00,28.00 L 43.00,29.00 L 43.00,29.00 L 44.00,29.00 L 45.00,30.00 L 45.00,30.00 L 46.00,31.00 L 46.00,31.00 L 47.00,31.00 L 48.00,32.00 L 48.00,32.00 L 49.00,32.00 L 50.00,33.00 L 50.00,33.00 L 51.00,33.00 L 52.00,34.00 L 52.00,34.00 L 53.00,34.00 L 54.00,35.00 L 54.00,35.00 L 55.00,35.00 L 56.00,35.00 L 57.00,35.00 L 57.00,35.00 Z" fill="white" stroke="none" /><path d="M 10.00,46.00 L 11.00,45.00 L 12.00,45.00 L 12.00,45.00 L 13.00,44.00 L 14.00,44.00 L 14.00,44.00 L 15.00,43.00 L 15.00,43.00 L 16.00,42.00 L 17.00,42.00 L 17.00,42.00 L 18.00,41.00 L 19.00,41.00 L 19.00,41.00 L 20.00,40.00 L 21.00,40.00 L 21.00,40.00 L 22.00,39.00 L 22.00,39.00 L 23.00,38.00 L 24.00,38.00 L 24.00,38.00 L 25.00,37.00 L 26.00,37.00 L 26.00,37.00 L 27.00,36.00 L 28.00,36.00 L 28.00,36.00 L 29.00,35.00 L 29.00,35.00 L 30.00,34.00 L 31.00,34.00 L 31.00,34.00 L 31.00,33.00 L 31.00,32.00 L 31.00,31.00 L 31.00,30.00 L 31.00,30.00 L 30.00,29.00 L 30.00,29.00 L 29.00,29.00 L 28.00,29.00 L 27.00,29.00 L 27.00,29.00 L 26.00,30.00 L 25.00,30.00 L 25.00,30.00 L 24.00,31.00 L 23.00,31.00 L 23.00,31.00 L 22.00,32.00 L 22.00,32.00 L 21.00,33.00 L 20.00,33.00 L 20.00,33.00 L 19.00,34.00 L 18.00,34.00 L 18.00,34.00 L 17.00,35.00 L 16.00,35.00 L 16.00,35.00 L 15.00,36.00 L 15.00,36.00 L 14.00,37.00 L 13.00,37.00 L 13.00,37.00 L 12.00,38.00 L 11.00,38.00 L 11.00,38.00 L 10.00,39.00 L 9.00,39.00 L 9.00,39.00 L 8.00,40.00 L 7.00,40.00 L 7.00,40.00 L 6.00,41.00 L 6.00,41.00 L 6.00,42.00 L 6.00,43.00 L 6.00,44.00 L 6.00,45.00 L 6.00,45.00 L 7.00,45.00 L 8.00,46.00 L 8.00,46.00 L 9.00,46.00 L 10.00,46.00 L 10.00,46.00 Z" fill="white" stroke="none" /><path d="M 57.00,46.00 L 58.00,45.00 L 58.00,45.00 L 58.00,44.00 L 58.00,43.00 L 58.00,42.00 L 58.00,41.00 L 58.00,41.00 L 57.00,40.00 L 57.00,40.00 L 56.00,40.00 L 55.00,39.00 L 55.00,39.00 L 54.00,39.00 L 53.00,38.00 L 53.00,38.00 L 52.00,38.00 L 51.00,37.00 L 51.00,37.00 L 50.00,36.00 L 50.00,36.00 L 49.00,36.00 L 48.00,35.00 L 48.00,35.00 L 47.00,35.00 L 46.00,34.00 L 46.00,34.00 L 45.00,34.00 L 44.00,33.00 L 44.00,33.00 L 43.00,33.00 L 42.00,32.00 L 42.00,32.00 L 41.00,31.00 L 41.00,31.00 L 40.00,31.00 L 39.00,30.00 L 39.00,30.00 L 38.00,30.00 L 37.00,29.00 L 37.00,29.00 L 36.00,29.00 L 35.00,29.00 L 35.00,29.00 L 34.00,30.00 L 34.00,30.00 L 33.00,31.00 L 33.00,31.00 L 33.00,32.00 L 33.00,33.00 L 33.00,33.00 L 34.00,34.00 L 34.00,34.00 L 35.00,35.00 L 35.00,35.00 L 36.00,35.00 L 37.00,36.00 L 37.00,36.00 L 38.00,37.00 L 38.00,37.00 L 39.00,37.00 L 40.00,38.00 L 40.00,38.00 L 41.00,38.00 L 42.00,39.00 L 42.00,39.00 L 43.00,39.00 L 44.00,40.00 L 44.00,40.00 L 45.00,40.00 L 46.00,41.00 L 46.00,41.00 L 47.00,42.00 L 47.00,42.00 L 48.00,42.00 L 49.00,43.00 L 49.00,43.00 L 50.00,43.00 L 51.00,44.00 L 51.00,44.00 L 52.00,44.00 L 53.00,45.00 L 53.00,45.00 L 54.00,45.00 L 55.00,46.00 L 55.00,46.00 L 56.00,46.00 L 57.00,46.00 L 57.00,46.00 Z" fill="white" stroke="none" /><path d="M 127.00,73.00 L 128.00,72.00 L 129.00,72.00 L 130.00,72.00 L 130.00,72.00 L 131.00,71.00 L 131.00,71.00 L 132.00,70.00 L 132.00,70.00 L 132.00,69.00 L 132.00,68.00 L 132.00,67.00 L 132.00,66.00 L 132.00,65.00 L 132.00,64.00 L 132.00,63.00 L 132.00,62.00 L 132.00,61.00 L 132.00,60.00 L 132.00,60.00 L 131.00,59.00 L 131.00,59.00 L 130.00,59.00 L 130.00,59.00 L 129.00,60.00 L 129.00,60.00 L 129.00,61.00 L 129.00,62.00 L 129.00,63.00 L 129.00,64.00 L 129.00,65.00 L 129.00,66.00 L 129.00,67.00 L 129.00,68.00 L 128.00,69.00 L 128.00,69.00 L 127.00,70.00 L 126.00,70.00 L 125.00,70.00 L 124.00,70.00 L 123.00,70.00 L 122.00,69.00 L 122.00,69.00 L 121.00,68.00 L 121.00,67.00 L 121.00,66.00 L 121.00,65.00 L 121.00,64.00 L 121.00,63.00 L 121.00,62.00 L 121.00,61.00 L 121.00,60.00 L 121.00,60.00 L 120.00,59.00 L 120.00,59.00 L 119.00,59.00 L 119.00,59.00 L 118.00,60.00 L 118.00,60.00 L 118.00,61.00 L 118.00,62.00 L 118.00,63.00 L 118.00,64.00 L 118.00,65.00 L 118.00,66.00 L 118.00,67.00 L 118.00,68.00 L 118.00,69.00 L 118.00,69.00 L 119.00,70.00 L 119.00,71.00 L 119.00,71.00 L 120.00,71.00 L 121.00,72.00 L 121.00,72.00 L 122.00,72.00 L 123.00,73.00 L 123.00,73.00 L 124.00,73.00 L 125.00,73.00 L 126.00,73.00 L 127.00,73.00 L 127.00,73.00 Z" fill="white" stroke="none" /><path d="M 148.00,72.00 L 148.00,71.00 L 148.00,70.00 L 148.00,70.00 L 147.00,69.00 L 147.00,69.00 L 146.00,69.00 L 145.00,69.00 L 144.00,69.00 L 143.00,69.00 L 142.00,69.00 L 141.00,69.00 L 140.00,69.00 L 139.00,69.00 L 138.00,68.00 L 138.00,67.00 L 138.00,67.00 L 137.00,66.00 L 137.00,65.00 L 138.00,64.00 L 138.00,64.00 L 139.00,63.00 L 139.00,63.00 L 140.00,62.00 L 141.00,62.00 L 142.00,62.00 L 143.00,62.00 L 144.00,62.00 L 145.00,62.00 L 146.00,62.00 L 147.00,62.00 L 148.00,62.00 L 148.00,62.00 L 148.00,61.00 L 148.00,60.00 L 148.00,60.00 L 147.00,59.00 L 147.00,59.00 L 146.00,59.00 L 145.00,59.00 L 144.00,59.00 L 143.00,59.00 L 142.00,59.00 L 141.00,59.00 L 140.00,59.00 L 139.00,59.00 L 139.00,59.00 L 138.00,60.00 L 137.00,60.00 L 137.00,60.00 L 136.00,61.00 L 136.00,61.00 L 136.00,62.00 L 135.00,63.00 L 135.00,63.00 L 135.00,64.00 L 135.00,65.00 L 135.00,66.00 L 135.00,67.00 L 135.00,68.00 L 135.00,69.00 L 135.00,69.00 L 136.00,70.00 L 136.00,71.00 L 136.00,71.00 L 137.00,72.00 L 137.00,72.00 L 138.00,72.00 L 139.00,72.00 L 140.00,72.00 L 141.00,72.00 L 142.00,72.00 L 143.00,72.00 L 144.00,72.00 L 145.00,72.00 L 146.00,72.00 L 147.00,72.00 L 148.00,72.00 L 148.00,72.00 Z" fill="white" stroke="none" /><path d="M 165.00,72.00 L 166.00,71.00 L 166.00,71.00 L 166.00,70.00 L 166.00,70.00 L 165.00,70.00 L 164.00,69.00 L 164.00,69.00 L 163.00,69.00 L 162.00,69.00 L 161.00,69.00 L 160.00,68.00 L 160.00,67.00 L 160.00,66.00 L 160.00,65.00 L 160.00,64.00 L 160.00,63.00 L 161.00,62.00 L 162.00,62.00 L 163.00,62.00 L 164.00,62.00 L 165.00,62.00 L 165.00,62.00 L 166.00,61.00 L 166.00,61.00 L 166.00,60.00 L 166.00,60.00 L 165.00,59.00 L 165.00,59.00 L 164.00,59.00 L 163.00,59.00 L 162.00,59.00 L 161.00,59.00 L 160.00,59.00 L 159.00,59.00 L 158.00,59.00 L 157.00,59.00 L 156.00,59.00 L 155.00,59.00 L 154.00,59.00 L 153.00,59.00 L 153.00,59.00 L 152.00,60.00 L 152.00,60.00 L 152.00,61.00 L 152.00,62.00 L 152.00,62.00 L 153.00,62.00 L 154.00,62.00 L 155.00,62.00 L 156.00,62.00 L 157.00,63.00 L 157.00,64.00 L 157.00,65.00 L 157.00,66.00 L 157.00,67.00 L 157.00,68.00 L 156.00,69.00 L 155.00,69.00 L 154.00,69.00 L 153.00,69.00 L 153.00,69.00 L 152.00,70.00 L 152.00,70.00 L 152.00,71.00 L 152.00,72.00 L 152.00,72.00 L 153.00,72.00 L 154.00,72.00 L 155.00,72.00 L 156.00,72.00 L 157.00,72.00 L 158.00,72.00 L 159.00,72.00 L 160.00,72.00 L 161.00,72.00 L 162.00,72.00 L 163.00,72.00 L 164.00,72.00 L 165.00,72.00 L 165.00,72.00 Z" fill="white" stroke="none" /><path d="M 183.00,72.00 L 184.00,71.00 L 184.00,71.00 L 184.00,70.00 L 184.00,70.00 L 183.00,69.00 L 183.00,69.00 L 182.00,69.00 L 181.00,69.00 L 180.00,68.00 L 180.00,68.00 L 179.00,68.00 L 178.00,67.00 L 178.00,67.00 L 177.00,67.00 L 176.00,66.00 L 177.00,65.00 L 177.00,65.00 L 178.00,64.00 L 179.00,64.00 L 179.00,64.00 L 180.00,63.00 L 181.00,63.00 L 182.00,63.00 L 182.00,63.00 L 183.00,62.00 L 183.00,62.00 L 184.00,61.00 L 184.00,61.00 L 184.00,60.00 L 184.00,60.00 L 183.00,60.00 L 182.00,59.00 L 182.00,59.00 L 182.00,59.00 L 181.00,60.00 L 180.00,60.00 L 179.00,60.00 L 179.00,60.00 L 178.00,61.00 L 177.00,61.00 L 177.00,61.00 L 176.00,62.00 L 175.00,62.00 L 175.00,62.00 L 174.00,63.00 L 174.00,63.00 L 173.00,64.00 L 172.00,63.00 L 172.00,62.00 L 172.00,61.00 L 172.00,60.00 L 172.00,60.00 L 171.00,59.00 L 171.00,59.00 L 170.00,59.00 L 170.00,59.00 L 169.00,60.00 L 169.00,60.00 L 169.00,61.00 L 169.00,62.00 L 169.00,63.00 L 169.00,64.00 L 169.00,65.00 L 169.00,66.00 L 169.00,67.00 L 169.00,68.00 L 169.00,69.00 L 169.00,70.00 L 169.00,71.00 L 169.00,72.00 L 169.00,72.00 L 170.00,72.00 L 171.00,72.00 L 172.00,72.00 L 172.00,72.00 L 172.00,71.00 L 172.00,70.00 L 172.00,69.00 L 173.00,68.00 L 174.00,69.00 L 174.00,69.00 L 175.00,69.00 L 176.00,70.00 L 176.00,70.00 L 177.00,70.00 L 178.00,71.00 L 178.00,71.00 L 179.00,71.00 L 180.00,71.00 L 181.00,72.00 L 181.00,72.00 L 182.00,72.00 L 183.00,72.00 L 183.00,72.00 Z" fill="white" stroke="none" /><path d="M 201.00,72.00 L 201.00,71.00 L 201.00,70.00 L 201.00,69.00 L 201.00,69.00 L 200.00,68.00 L 200.00,67.00 L 200.00,66.00 L 200.00,66.00 L 199.00,65.00 L 199.00,64.00 L 199.00,64.00 L 198.00,63.00 L 198.00,62.00 L 198.00,62.00 L 197.00,61.00 L 197.00,60.00 L 197.00,60.00 L 196.00,59.00 L 196.00,59.00 L 195.00,59.00 L 194.00,59.00 L 193.00,59.00 L 192.00,59.00 L 192.00,59.00 L 191.00,60.00 L 191.00,60.00 L 191.00,61.00 L 190.00,62.00 L 190.00,62.00 L 190.00,63.00 L 189.00,64.00 L 189.00,64.00 L 189.00,65.00 L 188.00,66.00 L 188.00,66.00 L 188.00,67.00 L 188.00,68.00 L 187.00,69.00 L 187.00,69.00 L 187.00,70.00 L 187.00,71.00 L 187.00,72.00 L 187.00,72.00 L 188.00,72.00 L 189.00,72.00 L 189.00,72.00 L 190.00,71.00 L 190.00,71.00 L 190.00,70.00 L 190.00,69.00 L 191.00,68.00 L 192.00,69.00 L 192.00,69.00 L 193.00,70.00 L 193.00,70.00 L 194.00,70.00 L 195.00,70.00 L 196.00,70.00 L 197.00,70.00 L 198.00,71.00 L 198.00,71.00 L 199.00,72.00 L 199.00,72.00 L 200.00,72.00 L 201.00,72.00 L 201.00,72.00 Z" fill="white" stroke="none" /><path d="M 212.00,72.00 L 212.00,71.00 L 212.00,70.00 L 212.00,69.00 L 212.00,68.00 L 212.00,67.00 L 212.00,66.00 L 212.00,65.00 L 212.00,64.00 L 212.00,63.00 L 213.00,62.00 L 214.00,62.00 L 215.00,62.00 L 216.00,62.00 L 217.00,62.00 L 218.00,62.00 L 218.00,62.00 L 219.00,61.00 L 219.00,61.00 L 219.00,61.00 L 218.00,60.00 L 218.00,60.00 L 217.00,59.00 L 217.00,59.00 L 216.00,59.00 L 215.00,59.00 L 214.00,59.00 L 213.00,59.00 L 212.00,59.00 L 211.00,59.00 L 210.00,59.00 L 209.00,59.00 L 208.00,59.00 L 207.00,59.00 L 206.00,59.00 L 205.00,59.00 L 204.00,59.00 L 204.00,59.00 L 203.00,60.00 L 203.00,60.00 L 203.00,61.00 L 203.00,61.00 L 204.00,62.00 L 204.00,62.00 L 205.00,62.00 L 206.00,62.00 L 207.00,62.00 L 208.00,62.00 L 209.00,63.00 L 209.00,64.00 L 209.00,65.00 L 209.00,66.00 L 209.00,67.00 L 209.00,68.00 L 209.00,69.00 L 209.00,70.00 L 209.00,71.00 L 209.00,71.00 L 210.00,72.00 L 210.00,72.00 L 211.00,72.00 L 212.00,72.00 L 212.00,72.00 Z" fill="white" stroke="none" /><path d="M 231.00,73.00 L 232.00,72.00 L 233.00,72.00 L 234.00,72.00 L 234.00,72.00 L 235.00,71.00 L 235.00,71.00 L 236.00,70.00 L 236.00,70.00 L 236.00,69.00 L 236.00,68.00 L 236.00,67.00 L 236.00,66.00 L 236.00,65.00 L 236.00,64.00 L 236.00,63.00 L 236.00,62.00 L 236.00,61.00 L 236.00,60.00 L 236.00,60.00 L 235.00,59.00 L 235.00,59.00 L 234.00,59.00 L 234.00,59.00 L 233.00,60.00 L 233.00,60.00 L 233.00,61.00 L 233.00,62.00 L 233.00,63.00 L 233.00,64.00 L 233.00,65.00 L 233.00,66.00 L 233.00,67.00 L 233.00,68.00 L 232.00,69.00 L 232.00,69.00 L 231.00,70.00 L 230.00,70.00 L 229.00,70.00 L 228.00,70.00 L 227.00,70.00 L 226.00,69.00 L 226.00,69.00 L 225.00,68.00 L 225.00,67.00 L 225.00,66.00 L 225.00,65.00 L 225.00,64.00 L 225.00,63.00 L 225.00,62.00 L 225.00,61.00 L 225.00,60.00 L 225.00,60.00 L 224.00,59.00 L 224.00,59.00 L 223.00,59.00 L 223.00,59.00 L 222.00,60.00 L 222.00,60.00 L 222.00,61.00 L 222.00,62.00 L 222.00,63.00 L 222.00,64.00 L 222.00,65.00 L 222.00,66.00 L 222.00,67.00 L 222.00,68.00 L 222.00,69.00 L 222.00,70.00 L 222.00,70.00 L 223.00,71.00 L 223.00,71.00 L 224.00,71.00 L 225.00,72.00 L 225.00,72.00 L 226.00,72.00 L 227.00,73.00 L 227.00,73.00 L 228.00,73.00 L 229.00,73.00 L 230.00,73.00 L 231.00,73.00 L 231.00,73.00 Z" fill="white" stroke="none" /><path d="M 192.00,69.00 L 191.00,68.00 L 191.00,67.00 L 192.00,66.00 L 192.00,66.00 L 192.00,65.00 L 192.00,64.00 L 193.00,63.00 L 193.00,63.00 L 194.00,62.00 L 195.00,63.00 L 195.00,63.00 L 196.00,64.00 L 196.00,65.00 L 196.00,65.00 L 197.00,66.00 L 196.00,67.00 L 195.00,67.00 L 194.00,67.00 L 194.00,67.00 L 193.00,68.00 L 193.00,68.00 L 192.00,69.00 Z" fill="white" stroke="none" /></svg>