<?xml version="1.0" encoding="UTF-8"?>
<svg version="1.1" xmlns="http://www.w3.org/2000/svg" width="290" height="80">
<path d="M0 0 C1.24669968 -0.00855011 1.24669968 -0.00855011 2.51858521 -0.01727295 C4.27881597 -0.02672646 6.03906447 -0.03325832 7.79931641 -0.03710938 C10.49022363 -0.04681158 13.18036598 -0.07782956 15.87109375 -0.109375 C17.58072463 -0.11590543 19.29036097 -0.12115575 21 -0.125 C21.80428436 -0.1373468 22.60856873 -0.1496936 23.43722534 -0.16241455 C26.86588967 -0.14876822 29.19352222 -0.05989171 32.17236328 1.72363281 C32.89528564 2.45598145 32.89528564 2.45598145 33.6328125 3.203125 C32.7578125 9.078125 32.7578125 9.078125 31.6328125 10.203125 C29.61317051 10.27556553 27.59114126 10.28689688 25.5703125 10.265625 C23.91322266 10.25208984 23.91322266 10.25208984 22.22265625 10.23828125 C21.36800781 10.22667969 20.51335937 10.21507812 19.6328125 10.203125 C19.3028125 12.183125 18.9728125 14.163125 18.6328125 16.203125 C20.00566406 16.16832031 20.00566406 16.16832031 21.40625 16.1328125 C22.59476563 16.11476563 23.78328125 16.09671875 25.0078125 16.078125 C26.19117188 16.05492187 27.37453125 16.03171875 28.59375 16.0078125 C31.6328125 16.203125 31.6328125 16.203125 33.6328125 18.203125 C33.3828125 21.765625 33.3828125 21.765625 32.6328125 25.203125 C29.62967502 26.70469374 26.84213728 26.29593704 23.5078125 26.265625 C22.22648437 26.25660156 20.94515625 26.24757813 19.625 26.23828125 C18.63757813 26.22667969 17.65015625 26.21507813 16.6328125 26.203125 C16.5915625 27.21375 16.5503125 28.224375 16.5078125 29.265625 C15.83778788 33.97494093 13.22183742 37.19374348 9.6328125 40.203125 C5.89087658 42.10239332 2.74382005 42.49979627 -1.4296875 42.515625 C-2.45191406 42.53238281 -3.47414062 42.54914062 -4.52734375 42.56640625 C-7.68882233 42.16198052 -9.0383739 41.31972058 -11.3671875 39.203125 C-10.4921875 33.328125 -10.4921875 33.328125 -9.3671875 32.203125 C-6.32996193 31.95833369 -3.29378144 31.81904135 -0.25 31.6796875 C2.87259517 31.16348613 3.77964182 30.69447366 5.6328125 28.203125 C5.9628125 27.543125 6.2928125 26.883125 6.6328125 26.203125 C5.58480469 26.23792969 4.53679687 26.27273437 3.45703125 26.30859375 C2.07814103 26.33673437 0.69923348 26.36403424 -0.6796875 26.390625 C-1.71512695 26.42833008 -1.71512695 26.42833008 -2.77148438 26.46679688 C-7.87727491 26.54079384 -7.87727491 26.54079384 -10.328125 24.8515625 C-11.79635137 22.52227104 -11.71277642 20.89871861 -11.3671875 18.203125 C-9.3671875 16.203125 -9.3671875 16.203125 -7.48779297 15.97607422 C-6.74416504 15.98654785 -6.00053711 15.99702148 -5.234375 16.0078125 C-4.02587891 16.01748047 -4.02587891 16.01748047 -2.79296875 16.02734375 C-1.53033203 16.05248047 -1.53033203 16.05248047 -0.2421875 16.078125 C1.03205078 16.09166016 1.03205078 16.09166016 2.33203125 16.10546875 C4.43241134 16.12906853 6.53264694 16.16494017 8.6328125 16.203125 C8.6328125 14.553125 8.6328125 12.903125 8.6328125 11.203125 C7.35664063 11.15414063 6.08046875 11.10515625 4.765625 11.0546875 C3.09633178 10.97966309 1.42706204 10.90411512 -0.2421875 10.828125 C-1.08394531 10.7971875 -1.92570313 10.76625 -2.79296875 10.734375 C-3.59863281 10.69570313 -4.40429688 10.65703125 -5.234375 10.6171875 C-5.97800293 10.5857666 -6.72163086 10.5543457 -7.48779297 10.52197266 C-9.3671875 10.203125 -9.3671875 10.203125 -11.3671875 8.203125 C-11.1171875 4.640625 -11.1171875 4.640625 -10.3671875 1.203125 C-7.12471152 -0.41811299 -3.56370044 0.01873646 0 0 Z " fill="#FFFFFF" transform="translate(139.3671875,6.796875)"/>
<path d="M0 0 C0.33 1.32 0.66 2.64 1 4 C1.59538574 3.98952637 2.19077148 3.97905273 2.80419922 3.96826172 C5.49442343 3.92676051 8.18458037 3.90069296 10.875 3.875 C11.81214844 3.85824219 12.74929687 3.84148438 13.71484375 3.82421875 C14.61074219 3.81777344 15.50664062 3.81132812 16.4296875 3.8046875 C17.25710449 3.79421387 18.08452148 3.78374023 18.93701172 3.77294922 C21 4 21 4 23 6 C24.36499424 15.57268688 22.79513899 27.7376144 17.125 35.6875 C14.18693027 39.05043766 11.60653496 41.6408318 7.015625 42.2734375 C4.00493306 42.41628055 1.61143868 42.33351201 -1.0625 40.875 C-2.46771358 38.06457284 -1.72549141 35.96791942 -1 33 C-0.07767578 32.79697266 -0.07767578 32.79697266 0.86328125 32.58984375 C6.37567867 31.13197455 6.37567867 31.13197455 10 26.875 C11.33631351 22.68668853 11.664247 18.36478903 12 14 C7.71 14 3.42 14 -1 14 C-0.938125 14.928125 -0.87625 15.85625 -0.8125 16.8125 C-0.88120678 25.29778715 -3.29167733 32.37645223 -9.23828125 38.47265625 C-12.47897251 41.28221342 -14.91086557 41.91286925 -19.125 42.25 C-22 42 -22 42 -25 40 C-25.3125 37 -25.3125 37 -25 34 C-22.81482315 31.81482315 -21.95213418 31.66394435 -19.0625 30.9375 C-16.39277256 29.9895533 -15.28582804 29.49054272 -13.84375 27.015625 C-12.4229638 22.78168213 -11.56779331 18.42878778 -11 14 C-11.68707031 14.04640625 -12.37414062 14.0928125 -13.08203125 14.140625 C-13.98308594 14.17671875 -14.88414062 14.2128125 -15.8125 14.25 C-16.70582031 14.29640625 -17.59914062 14.3428125 -18.51953125 14.390625 C-21 14 -21 14 -22.87109375 12.15234375 C-24 10 -24 10 -23.25 7.3125 C-22 5 -22 5 -21 4 C-18.98035801 3.92755947 -16.95832876 3.91622812 -14.9375 3.9375 C-13.28041016 3.95103516 -13.28041016 3.95103516 -11.58984375 3.96484375 C-10.73519531 3.97644531 -9.88054687 3.98804688 -9 4 C-8.71125 3.360625 -8.4225 2.72125 -8.125 2.0625 C-6.00428289 -1.82548136 -3.86823244 -0.91616031 0 0 Z " fill="#FFFFFF" transform="translate(206,7)"/>
<path d="M0 0 C1.15625 2.05078125 1.15625 2.05078125 2 4 C3.20398438 3.97679687 4.40796875 3.95359375 5.6484375 3.9296875 C7.22395215 3.91093137 8.79947348 3.89273101 10.375 3.875 C11.1690625 3.85824219 11.963125 3.84148438 12.78125 3.82421875 C14.85492015 3.80664527 16.92883241 3.89664832 19 4 C21 6 21 6 21.08203125 9.34375 C21.00773915 10.73008759 20.91692897 12.11560633 20.8125 13.5 C20.75916504 14.22251953 20.70583008 14.94503906 20.65087891 15.68945312 C19.79654944 25.72614259 17.7371666 33.09181553 10 40 C5.86301018 42.61283567 0.77723385 42.76649648 -4 42 C-6.5625 40 -6.5625 40 -8 38 C-6.125 33.125 -6.125 33.125 -5 32 C-2.48836585 31.54538522 0.02952 31.16474997 2.5546875 30.79296875 C5.53562856 30.08569994 5.53562856 30.08569994 8 26 C8.66 22.04 9.32 18.08 10 14 C1.09 14 -7.82 14 -17 14 C-17 17.3 -17 20.6 -17 24 C-20 27 -20 27 -22.5625 27.3125 C-25 27 -25 27 -27 25 C-27.44360072 22.04147891 -27.32412652 19.05051549 -27.3125 16.0625 C-27.32861328 15.23814453 -27.34472656 14.41378906 -27.36132812 13.56445312 C-27.36197266 12.77103516 -27.36261719 11.97761719 -27.36328125 11.16015625 C-27.36626221 10.43449463 -27.36924316 9.70883301 -27.37231445 8.96118164 C-26.88701641 6.40485433 -26.0832682 5.52907495 -24 4 C-21.18872957 3.78285759 -18.6116655 3.71715724 -15.8125 3.8125 C-15.06291016 3.82603516 -14.31332031 3.83957031 -13.54101562 3.85351562 C-11.69370233 3.88881461 -9.84675934 3.94262083 -8 4 C-7.87625 3.360625 -7.7525 2.72125 -7.625 2.0625 C-7.315625 1.0415625 -7.315625 1.0415625 -7 0 C-4.25509788 -1.37245106 -2.87939419 -0.93580311 0 0 Z " fill="#FFFFFF" transform="translate(98,7)"/>
<path d="M0 0 C3 0.25 3 0.25 5 2.25 C4.65476165 8.19721914 3.20701995 13.56213155 1.3125 19.1875 C1.04775879 19.97584229 0.78301758 20.76418457 0.51025391 21.57641602 C-2.13587794 29.13422497 -5.23789638 35.6326444 -12 40.25 C-15.5894328 41.61150899 -19.20450205 41.521107 -23 41.25 C-25.4375 39.75 -25.4375 39.75 -27 38.25 C-26.505 35.28 -26.505 35.28 -26 32.25 C-25.40832031 32.09144531 -24.81664062 31.93289062 -24.20703125 31.76953125 C-23.41683594 31.53621094 -22.62664062 31.30289063 -21.8125 31.0625 C-21.03519531 30.84207031 -20.25789063 30.62164062 -19.45703125 30.39453125 C-15.29596006 28.45622623 -12.7756344 26.10620158 -10.98217773 21.81420898 C-10.01575741 18.91444136 -9.14591894 16.00319689 -8.3125 13.0625 C-7.73065721 11.06742857 -7.14366372 9.07384987 -6.55078125 7.08203125 C-6.29981689 6.20264893 -6.04885254 5.3232666 -5.7902832 4.41723633 C-4.54113909 0.99164094 -3.65115234 0.30426269 0 0 Z " fill="#FFFFFF" transform="translate(279,7.75)"/>
<path d="M0 0 C2.36568222 2.36568222 2.25571704 2.85232226 2.265625 6.0625 C2.26820313 6.85914063 2.27078125 7.65578125 2.2734375 8.4765625 C2.26570313 9.30929688 2.25796875 10.14203125 2.25 11 C2.25773437 11.83273438 2.26546875 12.66546875 2.2734375 13.5234375 C2.27085937 14.32007813 2.26828125 15.11671875 2.265625 15.9375 C2.26336914 16.66839844 2.26111328 17.39929688 2.25878906 18.15234375 C2 20 2 20 0 22 C-3 22.3125 -3 22.3125 -6 22 C-8.48614181 18.27078729 -8.33170055 15.31628318 -8.3125 11 C-8.32861328 10.27554687 -8.34472656 9.55109375 -8.36132812 8.8046875 C-8.36619084 3.53350218 -8.36619084 3.53350218 -6.640625 1.01953125 C-4.31429157 -0.42611881 -2.68177978 -0.34381792 0 0 Z " fill="#FFFFFF" transform="translate(260,8)"/>
<path d="M0 0 C2.5625 0.375 2.5625 0.375 4.203125 1.92578125 C6.09953282 5.34258499 5.92435215 8.05386508 5.875 11.9375 C5.87822266 12.60974609 5.88144531 13.28199219 5.88476562 13.97460938 C5.84467649 17.64458778 5.64754922 19.24742617 3.5625 22.375 C0.48328868 22.63160094 -1.64886993 22.76931504 -4.4375 21.375 C-4.49541844 18.25007749 -4.53106746 15.12529234 -4.5625 12 C-4.57925781 11.11054688 -4.59601563 10.22109375 -4.61328125 9.3046875 C-4.61972656 8.45390625 -4.62617188 7.603125 -4.6328125 6.7265625 C-4.64328613 5.94104004 -4.65375977 5.15551758 -4.66455078 4.34619141 C-4.30049352 1.18554803 -3.03185806 0.4664397 0 0 Z " fill="#FFFFFF" transform="translate(243.4375,7.625)"/>
<path d="M0 0 C0 1.65 0 3.3 0 5 C-3.38205349 7.04459897 -6.78255457 9.05629449 -10.1875 11.0625 C-11.62706055 11.93358398 -11.62706055 11.93358398 -13.09570312 12.82226562 C-14.49272461 13.63920898 -14.49272461 13.63920898 -15.91796875 14.47265625 C-16.77156982 14.98062744 -17.6251709 15.48859863 -18.50463867 16.01196289 C-21.46254067 17.18314275 -22.99779971 16.90512695 -26 16 C-26 14.35 -26 12.7 -26 11 C-22.61794651 8.95540103 -19.21744543 6.94370551 -15.8125 4.9375 C-14.37293945 4.06641602 -14.37293945 4.06641602 -12.90429688 3.17773438 C-11.50727539 2.36079102 -11.50727539 2.36079102 -10.08203125 1.52734375 C-9.22843018 1.01937256 -8.3748291 0.51140137 -7.49536133 -0.01196289 C-4.53745933 -1.18314275 -3.00220029 -0.90512695 0 0 Z " fill="#FFFFFF" transform="translate(32,9)"/>
<path d="M0 0 C0 1.65 0 3.3 0 5 C-3.38205349 7.04459897 -6.78255457 9.05629449 -10.1875 11.0625 C-11.62706055 11.93358398 -11.62706055 11.93358398 -13.09570312 12.82226562 C-14.49272461 13.63920898 -14.49272461 13.63920898 -15.91796875 14.47265625 C-16.77156982 14.98062744 -17.6251709 15.48859863 -18.50463867 16.01196289 C-21.46254067 17.18314275 -22.99779971 16.90512695 -26 16 C-26 14.35 -26 12.7 -26 11 C-22.61794651 8.95540103 -19.21744543 6.94370551 -15.8125 4.9375 C-14.37293945 4.06641602 -14.37293945 4.06641602 -12.90429688 3.17773438 C-11.50727539 2.36079102 -11.50727539 2.36079102 -10.08203125 1.52734375 C-9.22843018 1.01937256 -8.3748291 0.51140137 -7.49536133 -0.01196289 C-4.53745933 -1.18314275 -3.00220029 -0.90512695 0 0 Z " fill="#FFFFFF" transform="translate(32,30)"/>
<path d="M0 0 C0.53238281 0.391875 1.06476562 0.78375 1.61328125 1.1875 C1.29746562 4.17548073 1.12804573 5.7308974 -1.16503906 7.76489258 C-1.92397461 8.19954834 -2.68291016 8.6342041 -3.46484375 9.08203125 C-4.29628906 9.56220703 -5.12773437 10.04238281 -5.984375 10.53710938 C-6.85964844 11.01986328 -7.73492188 11.50261719 -8.63671875 12 C-9.49652344 12.50208984 -10.35632813 13.00417969 -11.2421875 13.52148438 C-15.54393337 15.95737283 -18.34158678 17.50546582 -23.38671875 17.1875 C-23.71671875 15.5375 -24.04671875 13.8875 -24.38671875 12.1875 C-19.27535091 8.58180641 -14.00882796 5.28510457 -8.57421875 2.1875 C-7.49527344 1.56875 -6.41632812 0.95 -5.3046875 0.3125 C-2.38671875 -0.8125 -2.38671875 -0.8125 0 0 Z " fill="#FFFFFF" transform="translate(30.38671875,18.8125)"/>
<path d="M0 0 C6.11513245 0.44109152 10.68027967 3.25364776 15.875 6.25 C16.75414063 6.72824219 17.63328125 7.20648438 18.5390625 7.69921875 C19.36921875 8.17488281 20.199375 8.65054687 21.0546875 9.140625 C21.81249512 9.56891602 22.57030273 9.99720703 23.35107422 10.43847656 C25 12 25 12 25.24658203 14.67871094 C25.12452393 15.82774902 25.12452393 15.82774902 25 17 C22.45112553 17.95573676 21.32415795 18.12409117 18.74169922 17.13549805 C17.53537842 16.45547729 17.53537842 16.45547729 16.3046875 15.76171875 C15.42425781 15.27123047 14.54382812 14.78074219 13.63671875 14.27539062 C12.72535156 13.75138672 11.81398438 13.22738281 10.875 12.6875 C9.95589844 12.17509766 9.03679688 11.66269531 8.08984375 11.13476562 C1.32544643 7.32544643 1.32544643 7.32544643 -1 5 C-0.625 2.375 -0.625 2.375 0 0 Z " fill="#FFFFFF" transform="translate(34,8)"/>
<path d="M0 0 C5.62491544 0.72283216 9.96396629 3.48044234 14.8125 6.25 C16.13797852 6.96736328 16.13797852 6.96736328 17.49023438 7.69921875 C18.32490234 8.17488281 19.15957031 8.65054688 20.01953125 9.140625 C20.78370361 9.56891602 21.54787598 9.99720703 22.33520508 10.43847656 C24 12 24 12 24.2487793 14.67871094 C24.16668213 15.44473633 24.08458496 16.21076172 24 17 C21.45112553 17.95573676 20.32415795 18.12409117 17.74169922 17.13549805 C16.53537842 16.45547729 16.53537842 16.45547729 15.3046875 15.76171875 C14.42425781 15.27123047 13.54382812 14.78074219 12.63671875 14.27539062 C11.72535156 13.75138672 10.81398438 13.22738281 9.875 12.6875 C8.95589844 12.17509766 8.03679688 11.66269531 7.08984375 11.13476562 C0.32544643 7.32544643 0.32544643 7.32544643 -2 5 C-1.46428571 1.46428571 -1.46428571 1.46428571 0 0 Z " fill="#FFFFFF" transform="translate(35,29)"/>
<path d="M0 0 C6.23099903 0.29131944 10.58182491 2.59234727 15.875 5.75 C16.64585938 6.18054688 17.41671875 6.61109375 18.2109375 7.0546875 C23.75602418 10.31535467 23.75602418 10.31535467 25.0078125 13.828125 C25.00523438 14.54484375 25.00265625 15.2615625 25 16 C19.68245844 17.53195278 17.18028312 15.9536071 12.5 13.421875 C11.5925 12.91140625 10.685 12.4009375 9.75 11.875 C8.82703125 11.38773438 7.9040625 10.90046875 6.953125 10.3984375 C6.0765625 9.91375 5.2 9.4290625 4.296875 8.9296875 C3.49604492 8.48866699 2.69521484 8.04764648 1.87011719 7.59326172 C0 6 0 6 -0.83105469 3.37939453 C-0.88680664 2.59419434 -0.94255859 1.80899414 -1 1 C-0.67 0.67 -0.34 0.34 0 0 Z " fill="#FFFFFF" transform="translate(34,19)"/>
<path d="M0 0 C0.99 0.33 1.98 0.66 3 1 C3.33 1.99 3.66 2.98 4 4 C4.81404297 3.54947266 4.81404297 3.54947266 5.64453125 3.08984375 C6.35996094 2.70957031 7.07539063 2.32929687 7.8125 1.9375 C8.52019531 1.55464844 9.22789062 1.17179687 9.95703125 0.77734375 C12 0 12 0 15 1 C13.9024777 3.99324263 13.32317108 4.84610901 10.375 6.25 C9.199375 6.62125 9.199375 6.62125 8 7 C11.465 8.98 11.465 8.98 15 11 C14.67 11.99 14.34 12.98 14 14 C10.28111761 13.49287967 7.26545761 12.88391785 4 11 C3.67 11.99 3.34 12.98 3 14 C1.68 14 0.36 14 -1 14 C-1.02685938 11.85423363 -1.04633088 9.70837355 -1.0625 7.5625 C-1.07410156 6.36753906 -1.08570313 5.17257813 -1.09765625 3.94140625 C-1 1 -1 1 0 0 Z " fill="#FFFFFF" transform="translate(170,59)"/>
<path d="M0 0 C4.29 0 8.58 0 13 0 C13 1.32 13 2.64 13 4 C11.35 4 9.7 4 8 4 C8 5.98 8 7.96 8 10 C10.97 10.495 10.97 10.495 14 11 C13.67 11.99 13.34 12.98 13 14 C8.38 14 3.76 14 -1 14 C-0.67 12.68 -0.34 11.36 0 10 C1.32 10 2.64 10 4 10 C4 8.02 4 6.04 4 4 C2.35 4 0.7 4 -1 4 C-0.67 2.68 -0.34 1.36 0 0 Z " fill="#FFFFFF" transform="translate(153,59)"/>
<path d="M0 0 C0.99 0.33 1.98 0.66 3 1 C3.33 3.97 3.66 6.94 4 10 C5.65 10 7.3 10 9 10 C9.33 7.03 9.66 4.06 10 1 C11.32 1 12.64 1 14 1 C14.28331725 4.70830802 14.42513461 8.29914867 14 12 C11.9375 14.25 11.9375 14.25 9 15 C4.76934307 14.78117292 2.54170582 14.36113721 -1 12 C-1.328125 9.43359375 -1.328125 9.43359375 -1.25 6.4375 C-1.23453125 5.44621094 -1.2190625 4.45492187 -1.203125 3.43359375 C-1 1 -1 1 0 0 Z " fill="#FFFFFF" transform="translate(223,59)"/>
<path d="M0 0 C0.99 0.33 1.98 0.66 3 1 C3.33 3.97 3.66 6.94 4 10 C5.65 10 7.3 10 9 10 C9.33 7.03 9.66 4.06 10 1 C11.32 1 12.64 1 14 1 C14.28331725 4.70830802 14.42513461 8.29914867 14 12 C11.9375 14.25 11.9375 14.25 9 15 C3.09369989 14.79633448 3.09369989 14.79633448 0.3046875 12.765625 C-1.45732103 10.38111047 -1.33553664 8.80890661 -1.25 5.875 C-1.23453125 4.98554687 -1.2190625 4.09609375 -1.203125 3.1796875 C-1 1 -1 1 0 0 Z " fill="#FFFFFF" transform="translate(119,59)"/>
<path d="M0 0 C1.65 0 3.3 0 5 0 C5.84324672 1.578076 6.67423918 3.1627042 7.5 4.75 C7.9640625 5.63171875 8.428125 6.5134375 8.90625 7.421875 C10 10 10 10 10 14 C8.51988629 13.69201674 7.04092675 13.378482 5.5625 13.0625 C4.73878906 12.88847656 3.91507813 12.71445313 3.06640625 12.53515625 C1 12 1 12 0 11 C-0.99 12.485 -0.99 12.485 -2 14 C-2.99 14 -3.98 14 -5 14 C-4.53411505 8.29290936 -3.06242216 4.84060277 0 0 Z M2 4 C1.34 5.98 0.68 7.96 0 10 C1.65 9.34 3.3 8.68 5 8 C4.34 6.68 3.68 5.36 3 4 C2.67 4 2.34 4 2 4 Z " fill="#FFFFFF" transform="translate(192,59)"/>
<path d="M0 0 C0.33 1.32 0.66 2.64 1 4 C-3.455 4.495 -3.455 4.495 -8 5 C-8.33 6.65 -8.66 8.3 -9 10 C-6.03 10 -3.06 10 0 10 C0.33 11.32 0.66 12.64 1 14 C-0.95766281 14.08082094 -2.91626728 14.13910778 -4.875 14.1875 C-5.96554688 14.22230469 -7.05609375 14.25710937 -8.1796875 14.29296875 C-9.11039063 14.19628906 -10.04109375 14.09960938 -11 14 C-13.48038907 10.2794164 -13.46337203 8.40203429 -13 4 C-9.93472556 -1.19763927 -5.39221271 -0.41478559 0 0 Z " fill="#FFFFFF" transform="translate(148,59)"/>
<path d="M0 0 C2.29109597 -0.08075665 4.58299267 -0.13907731 6.875 -0.1875 C8.78925781 -0.23970703 8.78925781 -0.23970703 10.7421875 -0.29296875 C11.81726563 -0.19628906 12.89234375 -0.09960938 14 0 C14.66 0.99 15.32 1.98 16 3 C15 4 15 4 11.9375 4.0625 C10.968125 4.041875 9.99875 4.02125 9 4 C9 7.3 9 10.6 9 14 C7.68 13.67 6.36 13.34 5 13 C5 10.03 5 7.06 5 4 C3.35 4 1.7 4 0 4 C0 2.68 0 1.36 0 0 Z " fill="#FFFFFF" transform="translate(204,59)"/>
</svg>
