<?xml version="1.0" encoding="utf-8"?>
<!-- Generator: Adobe Illustrator 26.0.1, SVG Export Plug-In . SVG Version: 6.00 Build 0)  -->
<svg version="1.1" id="レイヤー_1" xmlns="http://www.w3.org/2000/svg" xmlns:xlink="http://www.w3.org/1999/xlink" x="0px"
	 y="0px" viewBox="0 0 180 100" style="enable-background:new 0 0 180 100;" xml:space="preserve">
<style type="text/css">
	.st0{fill:none;stroke:#093994;stroke-width:2;stroke-linecap:round;stroke-linejoin:round;stroke-miterlimit:10;}
</style>
<g>
	<g>
		<circle class="st0" cx="47.4" cy="42.2" r="12.7"/>
		<line class="st0" x1="38.3" y1="51.3" x2="29.2" y2="60.4"/>
	</g>
	<g>
		<g>
			<g>
				<line class="st0" x1="63.3" y1="85.4" x2="150.8" y2="85.4"/>
			</g>
		</g>
		<g>
			<line class="st0" x1="73.1" y1="21.2" x2="73.3" y2="85.4"/>
			<line class="st0" x1="142.2" y1="54.9" x2="142.2" y2="85.4"/>
			<line class="st0" x1="131.2" y1="38.8" x2="131.2" y2="50.5"/>
			<line class="st0" x1="92.4" y1="54.9" x2="92.4" y2="85.4"/>
			<rect x="89.7" y="51.1" class="st0" width="55.3" height="3.8"/>
			<polygon class="st0" points="133.5,39.2 66.9,19.1 66.9,14.6 133.5,34.7 			"/>
			<rect x="80.8" y="37.1" class="st0" width="7.8" height="6.5"/>
			<rect x="93" y="37.1" class="st0" width="7.8" height="6.5"/>
			<rect x="100" y="63.3" class="st0" width="7.8" height="6.5"/>
			<rect x="112.2" y="63.3" class="st0" width="7.8" height="6.5"/>
			<polyline class="st0" points="126.4,85.4 126.4,71.8 134.8,71.8 134.8,85.4 			"/>
		</g>
	</g>
</g>
</svg>
