<?xml version="1.0" encoding="utf-8"?>
<!-- Generator: Adobe Illustrator 26.0.1, SVG Export Plug-In . SVG Version: 6.00 Build 0)  -->
<svg version="1.1" id="レイヤー_1" xmlns="http://www.w3.org/2000/svg" xmlns:xlink="http://www.w3.org/1999/xlink" x="0px"
	 y="0px" viewBox="0 0 180 100" style="enable-background:new 0 0 180 100;" xml:space="preserve">
<style type="text/css">
	.st0{fill:none;stroke:#093994;stroke-width:2;stroke-linecap:round;stroke-linejoin:round;stroke-miterlimit:10;}
</style>
<g>
	<g>
		<line class="st0" x1="20.9" y1="83.8" x2="132.3" y2="83.8"/>
	</g>
	<g>
		<line class="st0" x1="32.4" y1="83.6" x2="32.4" y2="45.4"/>
	</g>
	<g>
		<path class="st0" d="M107,45.4v5c0,0.5,0.4,1.2,0.9,1.4l14,6.5c0.5,0.2,0.9,0.9,0.9,1.4v23.5"/>
	</g>
	<g>
		<path class="st0" d="M26.5,44.5c0-0.5,0.4-1.3,0.8-1.6l41.6-28.2c0.5-0.3,1.2-0.3,1.7,0L112.1,43c0.5,0.3,0.8,1,0.8,1.6v3.6
			c0,0.5-0.4,0.7-0.8,0.4L70.5,20.3c-0.5-0.3-1.2-0.3-1.7,0L27.3,48.5c-0.5,0.3-0.8,0.1-0.8-0.4V44.5z"/>
	</g>
	<g>
		<path class="st0" d="M52.6,72.7c0,0.6-0.5,1-1,1h-7.7c-0.5,0-1-0.4-1-1v-8.9c0-0.5,0.5-1,1-1h7.7c0.5,0,1,0.5,1,1V72.7z"/>
	</g>
	<g>
		<path class="st0" d="M69.7,72.7c0,0.6-0.5,1-1,1H61c-0.6,0-1-0.4-1-1v-8.9c0-0.5,0.4-1,1-1h7.7c0.5,0,1,0.5,1,1V72.7z"/>
	</g>
	<g>
		<path class="st0" d="M114.5,67.6c0,0.6-0.5,1-1,1H98.4c-0.6,0-1-0.4-1-1v-1.4c0-0.6,0.4-1,1-1h15.1c0.5,0,1,0.4,1,1V67.6z"/>
	</g>
	<g>
		<line class="st0" x1="99.6" y1="83.5" x2="99.6" y2="68.8"/>
	</g>
	<g>
		<line class="st0" x1="112.3" y1="83.5" x2="112.3" y2="68.8"/>
	</g>
	<g>
		<path class="st0" d="M59,51.2c0,0.5-0.5,1-1,1h-7.7c-0.5,0-1-0.5-1-1v-1.8c0-0.5,0.5-1,1-1H58c0.5,0,1,0.5,1,1V51.2z"/>
	</g>
	<g>
		<path class="st0" d="M74.5,51.2c0,0.5-0.4,1-1,1h-7.7c-0.5,0-1-0.5-1-1v-1.8c0-0.5,0.5-1,1-1h7.7c0.6,0,1,0.5,1,1V51.2z"/>
	</g>
	<g>
		<path class="st0" d="M90.1,51.2c0,0.5-0.5,1-1,1h-7.7c-0.6,0-1-0.5-1-1v-1.8c0-0.5,0.4-1,1-1h7.7c0.5,0,1,0.5,1,1V51.2z"/>
	</g>
	<g>
		<ellipse class="st0" cx="149.2" cy="61" rx="10.9" ry="11.6"/>
	</g>
	<g>
		<line class="st0" x1="149.2" y1="61" x2="149.2" y2="85"/>
	</g>
	<g>
		<line class="st0" x1="149.3" y1="67.2" x2="153" y2="63.6"/>
	</g>
</g>
</svg>
