<?xml version="1.0" encoding="utf-8"?>
<!-- Generator: Adobe Illustrator 26.0.1, SVG Export Plug-In . SVG Version: 6.00 Build 0)  -->
<svg version="1.1" id="レイヤー_1" xmlns="http://www.w3.org/2000/svg" xmlns:xlink="http://www.w3.org/1999/xlink" x="0px"
	 y="0px" viewBox="0 0 180 100" style="enable-background:new 0 0 180 100;" xml:space="preserve">
<style type="text/css">
	.st0{fill:none;stroke:#093994;stroke-width:2;stroke-linecap:round;stroke-linejoin:round;stroke-miterlimit:10;}
</style>
<g>
	<g>
		<g>
			<path class="st0" d="M107.4,41.6V23.8c-0.1-1.9-1.7-3.6-3.6-3.6H37.9c-2,0-3.6,1.6-3.6,3.6v25.9c0,2,1.6,3.6,3.6,3.6h10.6v4.8
				l4.8-4.8h18.9"/>
		</g>
		<g>
			<path class="st0" d="M76.2,41.9h65.9c2,0,3.6,1.6,3.6,3.6v25.9c0,2-1.6,3.6-3.6,3.6h-10.6v4.8l-4.8-4.8H76.2
				c-2,0-3.6-1.6-3.6-3.6V45.5C72.7,43.5,74.3,41.9,76.2,41.9z"/>
		</g>
	</g>
</g>
</svg>
