<?xml version="1.0" encoding="utf-8"?>
<!-- Generator: Adobe Illustrator 26.0.1, SVG Export Plug-In . SVG Version: 6.00 Build 0)  -->
<svg version="1.1" id="レイヤー_1" xmlns="http://www.w3.org/2000/svg" xmlns:xlink="http://www.w3.org/1999/xlink" x="0px"
	 y="0px" viewBox="0 0 180 100" style="enable-background:new 0 0 180 100;" xml:space="preserve">
<style type="text/css">
	.st0{fill:none;stroke:#093994;stroke-width:2;stroke-linecap:round;stroke-linejoin:round;stroke-miterlimit:10;}
</style>
<g>
	<g>
		<g>
			<line class="st0" x1="46.3" y1="85.4" x2="133.7" y2="85.4"/>
		</g>
	</g>
	<g>
		<g>
			<path class="st0" d="M57.9,85.4V15.6c0-0.6,0.4-1,1-1h62.2c0.5,0,1,0.4,1,1v69.9"/>
		</g>
		<g>
			<path class="st0" d="M81.1,85.4V71.8c0-0.5,0.4-1,1-1h15.7c0.6,0,1,0.5,1,1v13.6"/>
		</g>
		<g>
			<line class="st0" x1="90" y1="70.8" x2="90" y2="85.4"/>
		</g>
		<g>
			<g>
				<g>
					<line class="st0" x1="58.3" y1="62.2" x2="121.7" y2="62.2"/>
				</g>
				<g>
					<g>
						<path class="st0" d="M98.6,62v-7c0-0.5,0.5-1,1-1h12c0.6,0,1,0.5,1,1v7"/>
					</g>
					<g>
						<line class="st0" x1="105.6" y1="54" x2="105.6" y2="62"/>
					</g>
					<g>
						<path class="st0" d="M67.4,62v-7c0-0.5,0.4-1,1-1h12c0.5,0,1,0.5,1,1v7"/>
					</g>
					<g>
						<line class="st0" x1="74.4" y1="54" x2="74.4" y2="62"/>
					</g>
				</g>
			</g>
		</g>
		<g>
			<g>
				<g>
					<line class="st0" x1="58.3" y1="45.6" x2="121.7" y2="45.6"/>
				</g>
				<g>
					<g>
						<path class="st0" d="M98.6,45.3v-6.9c0-0.6,0.5-1,1-1h12c0.6,0,1,0.4,1,1v6.9"/>
					</g>
					<g>
						<line class="st0" x1="105.6" y1="37.4" x2="105.6" y2="45.3"/>
					</g>
					<g>
						<path class="st0" d="M67.4,45.3v-6.9c0-0.6,0.4-1,1-1h12c0.5,0,1,0.4,1,1v6.9"/>
					</g>
					<g>
						<line class="st0" x1="74.4" y1="37.4" x2="74.4" y2="45.3"/>
					</g>
				</g>
			</g>
		</g>
		<g>
			<g>
				<g>
					<line class="st0" x1="58.3" y1="28.9" x2="121.7" y2="28.9"/>
				</g>
				<g>
					<g>
						<path class="st0" d="M98.6,28.7v-6.9c0-0.5,0.5-1,1-1h12c0.6,0,1,0.5,1,1v6.9"/>
					</g>
					<g>
						<line class="st0" x1="105.6" y1="20.8" x2="105.6" y2="28.7"/>
					</g>
					<g>
						<path class="st0" d="M67.4,28.7v-6.9c0-0.5,0.4-1,1-1h12c0.5,0,1,0.5,1,1v6.9"/>
					</g>
					<g>
						<line class="st0" x1="74.4" y1="20.8" x2="74.4" y2="28.7"/>
					</g>
				</g>
			</g>
		</g>
	</g>
</g>
</svg>
